<?xml version="1.0" encoding="UTF-8" standalone="no"?>
<!-- Created with Inkscape (http://www.inkscape.org/) -->

<svg
   xmlns:dc="http://purl.org/dc/elements/1.1/"
   xmlns:cc="http://creativecommons.org/ns#"
   xmlns:rdf="http://www.w3.org/1999/02/22-rdf-syntax-ns#"
   xmlns:svg="http://www.w3.org/2000/svg"
   xmlns="http://www.w3.org/2000/svg"
   xmlns:xlink="http://www.w3.org/1999/xlink"
   xmlns:sodipodi="http://sodipodi.sourceforge.net/DTD/sodipodi-0.dtd"
   xmlns:inkscape="http://www.inkscape.org/namespaces/inkscape"
   width="50"
   height="70"
   id="svg3823"
   version="1.1"
   inkscape:version="0.48.5 r10040"
   sodipodi:docname="troop.svg"
   inkscape:export-filename="/home/vg/Project/litoral/prototype/assets/chile/troop.png"
   inkscape:export-xdpi="90.055107"
   inkscape:export-ydpi="90.055107">
  <defs
     id="defs3825" />
  <sodipodi:namedview
     id="base"
     pagecolor="#ffffff"
     bordercolor="#666666"
     borderopacity="1.0"
     inkscape:pageopacity="0.0"
     inkscape:pageshadow="2"
     inkscape:zoom="1"
     inkscape:cx="-70.645809"
     inkscape:cy="-8.449341"
     inkscape:document-units="px"
     inkscape:current-layer="layer1"
     showgrid="false"
     inkscape:window-width="1366"
     inkscape:window-height="715"
     inkscape:window-x="0"
     inkscape:window-y="0"
     inkscape:window-maximized="1"
     showguides="true"
     inkscape:guide-bbox="true" />
  <metadata
     id="metadata3828">
    <rdf:RDF>
      <cc:Work
         rdf:about="">
        <dc:format>image/svg+xml</dc:format>
        <dc:type
           rdf:resource="http://purl.org/dc/dcmitype/StillImage" />
        <dc:title></dc:title>
      </cc:Work>
    </rdf:RDF>
  </metadata>
  <g
     inkscape:groupmode="layer"
     id="layer4"
     inkscape:label="pants"
     sodipodi:insensitive="true"
     style="display:none">
    <path
       sodipodi:nodetypes="ccccccc"
       inkscape:connector-curvature="0"
       id="path4431-3"
       d="m 27.03125,42.75002 8.0625,8.625 c 2.608018,2.847 0.98376,4.532 1.28125,8.2187 -2.815057,-0.1491 -4.986987,3.3124 -10.21875,2.4063 0.449425,-4.5727 1.39674,-7.2694 0.943037,-9.2031 -5.662896,-1.6929 -5.83859,-5.3811 -8.224287,-8.2657 z"
       style="fill:#445016;fill-opacity:1;stroke:#1a1a1a;stroke-width:1"
       inkscape:transform-center-x="-5"
       inkscape:transform-center-y="7.5" />
    <path
       style="fill:#445016;fill-opacity:1;stroke:#1a1a1a;stroke-width:1;stroke-linecap:round;stroke-linejoin:round;stroke-miterlimit:4;stroke-opacity:1;stroke-dasharray:none"
       d="m 24.981416,48.66072 c 1.948414,0.09 1.568286,-1.7744 1.826757,-2.8742 0.258471,-1.0997 0.339426,-1.8809 0.420379,-2.662 l 0.303587,-2.9294 c -4.689346,-2.1854 -7.591759,-2.001 -11.607555,0.1478 -3.06917,1.6423 -2.360441,5.371 -1.374016,6.6063 1.33925,1.6772 2.478513,1.3451 4.426957,1.4349 z"
       id="path3887-8"
       inkscape:connector-curvature="0"
       sodipodi:nodetypes="scccssss" />
    <path
       style="fill:#445016;fill-opacity:1;stroke:#1a1a1a;stroke-width:1"
       d="m 14.09375,45.00002 -2.3125,10.5 c -2.8311625,3.0906 -4.4396705,2.4459 -7.65625,9.4687 2.8150574,-0.1491 5.6119874,-1.1876 10.09375,-0.8437 -0.02029,-4.4955 3.753449,-7.0531 5.8125,-8.5781 L 22.25,46.78122 z"
       id="rect4426-9"
       inkscape:connector-curvature="0"
       sodipodi:nodetypes="ccccccc" />
  </g>
  <g
     inkscape:label="Layer 1"
     inkscape:groupmode="layer"
     id="layer1"
     transform="translate(0,-982.36218)">
    <g
       id="g4484"
       transform="matrix(0.73648154,0.67645764,-0.67645764,0.73648154,688.84304,249.86582)"
       inkscape:transform-center-x="1.6845164"
       inkscape:transform-center-y="11.018286">
      <path
         sodipodi:type="arc"
         style="fill:#bf7646;fill-opacity:1;stroke:#1a1a1a;stroke-width:1;stroke-linecap:square;stroke-linejoin:miter;stroke-miterlimit:4;stroke-opacity:1;stroke-dasharray:none"
         id="path4480"
         sodipodi:cx="9.8994951"
         sodipodi:cy="47.726135"
         sodipodi:rx="4.0658641"
         sodipodi:ry="4.0658641"
         d="m 13.965359,47.726135 a 4.0658641,4.0658641 0 1 1 -8.131728,0 4.0658641,4.0658641 0 1 1 8.131728,0 z"
         transform="matrix(-1,0,0,1,40.44823,979.7105)" />
      <path
         style="fill:#445016;fill-opacity:1;stroke:#1a1a1a;stroke-width:1;stroke-linecap:square;stroke-linejoin:miter;stroke-miterlimit:4;stroke-opacity:1"
         d="m 22.195932,1009.2678 -1.727968,2.9069 c 2.572092,-0.7461 10.991368,4.8026 7.95228,12.3468 2.458083,-0.2812 5.498565,4.6606 6.301821,-1.0462 0.85333,-6.0626 -3.381299,-13.1218 -12.526133,-14.2075 z"
         id="path4482"
         inkscape:connector-curvature="0"
         sodipodi:nodetypes="cccsc"
         inkscape:transform-center-x="-4.476204"
         inkscape:transform-center-y="6.8258431" />
    </g>
    <path
       sodipodi:nodetypes="ssccsss"
       inkscape:connector-curvature="0"
       id="path4466"
       d="m 13.21875,1045.2059 c 2.319875,0 4.1875,-0.2573 4.1875,4.1875 l 0,1.8125 -12.90625,0 0,-1.8125 c 0,-2.3198 1.867625,-4.1875 4.1875,-4.1875 z"
       style="fill:#1a1a1a;fill-opacity:1;stroke:#1a1a1a;stroke-width:1;stroke-linecap:square;stroke-linejoin:miter;stroke-miterlimit:4;stroke-opacity:1;stroke-dasharray:none" />
    <path
       style="fill:#1a1a1a;fill-opacity:1;stroke:#1a1a1a;stroke-width:1;stroke-linecap:square;stroke-linejoin:miter;stroke-miterlimit:4;stroke-opacity:1;stroke-dasharray:none"
       d="m 34.411547,1045.3934 c 2.005315,0 3.619703,-0.2573 3.619703,4.1875 l 0,1.8125 -11.15625,0 0,-1.8125 c 0,-2.3198 1.614388,-4.1875 3.619703,-4.1875 z"
       id="rect4460"
       inkscape:connector-curvature="0"
       sodipodi:nodetypes="ssccsss" />
    <path
       sodipodi:nodetypes="ccccccc"
       inkscape:connector-curvature="0"
       id="path4431"
       d="m 17,1025.1122 -6.057029,11.8838 c -2.066617,2.847 -0.779541,4.532 -1.015274,8.2187 2.230676,-0.1491 3.951733,3.3124 8.097429,2.4063 -0.356128,-4.5727 -0.04429,-7.2694 0.315229,-9.2031 4.48733,-1.6929 4.430198,-8.6399 6.815895,-11.5245 z"
       style="fill:#d52b1e;fill-opacity:1;stroke:#1a1a1a;stroke-width:1"
       inkscape:transform-center-x="5"
       inkscape:transform-center-y="7.5" />
    <path
       style="fill:#d52b1e;fill-opacity:1;stroke:#1a1a1a;stroke-width:1;stroke-linecap:round;stroke-linejoin:round;stroke-miterlimit:4;stroke-opacity:1;stroke-dasharray:none"
       d="m 22.5625,1021.0184 c 1.813746,0.042 3.523352,0.6131 5.53125,1.6875 2.349176,1.2571 2.75786,3.6645 2.625,5.375 L 33,1037.4247 c 2.831162,3.0906 3.31467,4.2584 6.53125,11.2812 -3.743135,0.4255 -7.020458,-5.4996 -11.28125,-2.2831 0.02029,-4.4955 -2.190949,-6.9731 -4.25,-8.4981 l -3.03125,-6.8125 c -2.373794,-1.582 -3.034472,-3.4574 -4.15625,-5.625 L 16.5,1022.5497 c 2.344673,-1.0927 4.248754,-1.5728 6.0625,-1.5313 z"
       id="path3887"
       inkscape:connector-curvature="0"
       sodipodi:nodetypes="ssccccccccs" />
    <path
       sodipodi:nodetypes="scccccccss"
       inkscape:connector-curvature="0"
       id="path3885"
       d="m 21.171154,1009.4716 c -1.927052,0.3657 -3.689606,1.0801 -4.092578,2.7999 l -0.03302,5e-4 c -0.08095,0.9474 -0.161905,1.0568 -0.242858,3.0376 l -2.071323,7.5393 c 2.420296,4.6708 15.652229,3.3654 15.183203,-1.1518 l -1.504324,-4.6686 c 0.08094,-1.9807 0.161894,-1.8425 0.13293,-3.1945 -0.02896,-1.3518 -1.562404,-5.4647 -3.489456,-5.099 z"
       style="fill:#cccccc;fill-opacity:1;stroke:#1a1a1a;stroke-width:1;stroke-linecap:round;stroke-linejoin:round;stroke-miterlimit:4;stroke-opacity:1;stroke-dasharray:none" />
    <path
       sodipodi:nodetypes="cccc"
       inkscape:connector-curvature="0"
       id="path3912"
       d="m 22.623762,1004.6121 c -2.261415,2.9249 -6.179412,5.3764 -6.243564,8.929 l 8.007688,-5.1424 z"
       style="fill:#cccccc;fill-opacity:1;stroke:#1a1a1a;stroke-width:1" />
    <path
       style="fill:#bf7646;fill-opacity:1;stroke:#1a1a1a;stroke-width:1"
       d="m 22.149224,989.44222 c 4.51777,0 8.167499,5.1406 8.167499,9.65996 0,2.73722 -1.35859,5.13752 -3.421956,6.62302 -0.339498,0.2444 -1.044004,0.4553 -1.936956,0.6461 0.02444,0.2713 0.06456,0.5554 0.06456,0.84 0,1.196 2.396711,3.2272 2.002626,3.9939 -0.499556,0.972 -3.962111,0.4194 -4.585234,0.9169 -4.452329,3.5546 -5.923093,0.8847 -3.781677,-1.4083 0.360359,-0.3859 0.953628,-0.7352 1.099294,-1.165 0.251523,-0.742 0.355987,-2.5016 0.355987,-2.5016 0,0 -2.803143,0.2288 -3.387625,0.2288 -3.248841,0 -2.553675,-1.6511 -3.873912,-4.3961 -0.803858,-0.336 -1.222867,-0.868 -1.222867,-1.7101 0,-1.1206 1.257771,-1.32392 1.852758,-2.29381 -0.854242,-4.68147 0.311977,-9.43377 8.667503,-9.43377 z"
       id="path3877"
       inkscape:connector-curvature="0"
       sodipodi:nodetypes="ssccssssscscscs" />
    <path
       style="fill:#1a1a1a;fill-opacity:1;stroke:none"
       d="m 15.317336,998.66857 c 0,1.42463 -0.240824,2.57953 2.61997,2.57953 1.446969,0 2.61997,-1.1549 2.61997,-2.57953 0,-1.32834 -0.249982,-2.57963 -2.61997,-2.57963 -2.032,0 -2.61997,1.15491 -2.61997,2.57963 z"
       id="path3838"
       inkscape:connector-curvature="0"
       sodipodi:nodetypes="sssss" />
    <path
       inkscape:connector-curvature="0"
       style="fill:#f9f9f9;fill-opacity:1;stroke:none"
       d="m 15.512521,998.66857 c 0,1.13295 0.879292,2.05143 2.382328,2.05143 1.503033,0 2.721486,-0.91848 2.721486,-2.05143 0,-1.13312 -1.218453,-2.05164 -2.721486,-2.05164 -1.503036,0 -2.382328,0.91852 -2.382328,2.05164 z"
       id="path3843"
       sodipodi:nodetypes="sssss" />
    <path
       id="path3841"
       d="m 15.408564,998.47653 c 0,1.15956 0.563487,2.09957 1.258584,2.09957 0.695094,0 1.258582,-0.94001 1.258582,-2.09957 0,-1.15962 -0.563488,-2.09954 -1.258582,-2.09954 -0.695097,0 -1.258584,0.93992 -1.258584,2.09954 z"
       style="fill:#1a1a1a;fill-opacity:1;stroke:none"
       inkscape:connector-curvature="0" />
    <path
       style="fill:#1a1a1a;fill-opacity:1;stroke:none"
       d="m 18.130884,996.02441 c 1.772143,0 3.113742,-0.22653 3.113742,0.60469 0,0.0963 0.061,0.53759 0.02414,0.62887 -0.262748,-0.70723 -1.554897,-0.35982 -3.137879,-0.35982 -1.550625,0 -3.398548,0.3767 -3.556895,0.73965 -0.01373,-0.0408 -0.02554,-0.0854 -0.02554,-0.128 0,-0.4399 1.810303,-1.48539 3.582443,-1.48539 z"
       id="path3892"
       inkscape:connector-curvature="0"
       sodipodi:nodetypes="sscscss" />
    <path
       style="fill:#1a1a1a;fill-opacity:1;stroke:none"
       d="m 22.135331,988.13586 c 2.621693,0 6.151919,1.34335 7.890286,4.04708 1.257232,1.9554 1.143644,5.0161 1.143644,6.91285 0,1.41401 -0.555315,5.74551 -1.190308,6.90001 -0.426916,-1.8144 -1.080242,-2.3081 -2.007056,-1.2065 0.830178,-1.9485 -1.081182,-0.054 -1.345151,-0.5893 -0.268378,-0.5439 -0.42792,-2.1093 -0.0555,-2.5502 3.474062,-4.11243 -0.747689,-3.73818 -1.341547,-2.89562 -0.141584,0.20088 -0.377731,1.17829 -0.599552,2.15332 -0.542039,-0.062 -1.060415,-0.2261 -1.113473,-0.2765 -0.09389,-2.18752 -0.06809,-3.81534 -0.332393,-4.06881 -1.088721,-1.04407 -7.124935,-3.43882 -8.965549,-3.43882 -0.6796,0 -0.220115,-1.14732 -0.145734,-1.56605 0.413508,-2.32788 3.30233,-3.42146 8.062328,-3.42146 z"
       id="path3902"
       inkscape:connector-curvature="0"
       sodipodi:nodetypes="sssccsssccssss" />
    <path
       style="fill:#0039a6;fill-opacity:1;stroke:#1a1a1a;stroke-width:1;stroke-linecap:round;stroke-linejoin:round;stroke-miterlimit:4;stroke-opacity:1;stroke-dasharray:none"
       d="m 32.040895,988.85304 -0.548173,5.59341 1.68126,4.16217 c -5.274345,1.3382 -18.390568,-4.26647 -22.495601,-6.03028 l 3.545921,-3.25121 0.830897,-3.15705 c 0.360856,-0.98957 2.187503,-2.65342 4.153415,-2.58534 2.88282,0.0762 12.888424,1.24055 12.832281,5.2683 z"
       id="rect3880"
       inkscape:connector-curvature="0"
       sodipodi:nodetypes="cccccccc" />
    <path
       style="fill:#1a1a1a;fill-opacity:1;stroke:none"
       d="m 15.006047,1003.983 c 0.976246,0 1.928147,0.2674 1.928147,1.1053 -0.290641,0.5668 -1.264781,-0.1935 -1.928144,-0.239 -0.803094,0 -1.483861,-0.4902 -1.699107,0.1392 -0.04641,-0.1357 -0.07812,-0.2639 -0.07812,-0.4126 0,-0.8379 0.80098,-0.5929 1.77722,-0.5929 z"
       id="path3897"
       inkscape:connector-curvature="0"
       sodipodi:nodetypes="scccss" />
    <path
       sodipodi:type="arc"
       style="fill:#bf7646;fill-opacity:1;stroke:#1a1a1a;stroke-width:1;stroke-linecap:square;stroke-linejoin:miter;stroke-miterlimit:4;stroke-opacity:1;stroke-dasharray:none"
       id="path4473"
       sodipodi:cx="9.8994951"
       sodipodi:cy="47.726135"
       sodipodi:rx="4.0658641"
       sodipodi:ry="4.0658641"
       d="m 13.965359,47.726135 a 4.0658641,4.0658641 0 1 1 -8.131728,0 4.0658641,4.0658641 0 1 1 8.131728,0 z"
       transform="matrix(-1,0,0,1,44.56158,979.71053)" />
    <path
       style="fill:#cccccc;fill-opacity:1;stroke:#1a1a1a;stroke-width:1;stroke-linecap:square;stroke-linejoin:miter;stroke-miterlimit:4;stroke-opacity:1"
       d="m 26.309283,1009.2678 -1.727968,2.9069 c 2.572092,-0.7461 10.991368,4.8026 7.952279,12.3468 2.458083,-0.2812 5.498565,4.6606 6.301822,-1.0462 0.85333,-6.0626 -3.3813,-13.1218 -12.526133,-14.2075 z"
       id="rect4468"
       inkscape:connector-curvature="0"
       sodipodi:nodetypes="cccsc"
       inkscape:transform-center-x="-4.4762051"
       inkscape:transform-center-y="6.8258145" />
    <path
       style="fill:#cccccc;fill-opacity:1;stroke:#1a1a1a;stroke-width:1;stroke-linecap:square;stroke-linejoin:miter"
       d="m 27.911846,1006.8278 -9.349077,7.7609 c 3.454087,-1.4031 9.299164,-3.5177 11.106836,-2.6863 z"
       id="path3910"
       inkscape:connector-curvature="0"
       sodipodi:nodetypes="cccc" />
    <path
       sodipodi:type="arc"
       style="fill:#1a1a1a;fill-opacity:1;stroke:none"
       id="path4422"
       sodipodi:cx="25.125"
       sodipodi:cy="35"
       sodipodi:rx="1.25"
       sodipodi:ry="1.25"
       d="m 26.375,35 a 1.25,1.25 0 1 1 -2.5,0 1.25,1.25 0 1 1 2.5,0 z"
       transform="matrix(-1,0,0,1,43.78125,981.98718)" />
    <path
       transform="matrix(-1,0,0,1,42.78125,986.73718)"
       d="m 26.375,35 a 1.25,1.25 0 1 1 -2.5,0 1.25,1.25 0 1 1 2.5,0 z"
       sodipodi:ry="1.25"
       sodipodi:rx="1.25"
       sodipodi:cy="35"
       sodipodi:cx="25.125"
       id="path4424"
       style="fill:#1a1a1a;fill-opacity:1;stroke:none"
       sodipodi:type="arc" />
    <g
       id="g4287"
       transform="matrix(-2.203125,0,0,2.203125,-38.046229,964.56943)">
      <g
         transform="translate(-27.723111,10.572596)"
         id="g4891" />
    </g>
    <g
       transform="matrix(-2.203125,0,0,2.203125,20.291211,989.18801)"
       id="g4981"
       style="fill:#cccccc;fill-opacity:1">
      <g
         id="f"
         style="fill:#cccccc;fill-opacity:1">
        <g
           id="t"
           style="fill:#cccccc;fill-opacity:1">
          <path
             id="o"
             transform="matrix(0.95105652,0.30901699,-0.30901699,0.95105652,-0.61803399,-0.09788697)"
             d="M 0,-2 V 0 H 1 z"
             inkscape:connector-curvature="0"
             style="fill:#cccccc;fill-opacity:1" />
          <use
             id="use4273"
             transform="scale(-1,1)"
             xlink:href="#o"
             x="0"
             y="0"
             width="1"
             height="1"
             style="fill:#cccccc;fill-opacity:1" />
        </g>
        <use
           id="use4275"
           transform="matrix(0.30901699,0.95105652,-0.95105652,0.30901699,0,0)"
           xlink:href="#t"
           x="0"
           y="0"
           width="1"
           height="1"
           style="fill:#cccccc;fill-opacity:1" />
      </g>
      <use
         id="use4277"
         transform="matrix(0.30901699,-0.95105652,0.95105652,0.30901699,0,0)"
         xlink:href="#t"
         x="0"
         y="0"
         width="1"
         height="1"
         style="fill:#cccccc;fill-opacity:1" />
      <use
         id="use4279"
         transform="matrix(-0.80901699,0.58778525,-0.58778525,-0.80901699,0,0)"
         xlink:href="#f"
         x="0"
         y="0"
         width="1"
         height="1"
         style="fill:#cccccc;fill-opacity:1" />
    </g>
  </g>
</svg>
