<?xml version="1.0" encoding="UTF-8" standalone="no"?>
<!-- Created with Inkscape (http://www.inkscape.org/) -->

<svg
   xmlns:dc="http://purl.org/dc/elements/1.1/"
   xmlns:cc="http://creativecommons.org/ns#"
   xmlns:rdf="http://www.w3.org/1999/02/22-rdf-syntax-ns#"
   xmlns:svg="http://www.w3.org/2000/svg"
   xmlns="http://www.w3.org/2000/svg"
   xmlns:sodipodi="http://sodipodi.sourceforge.net/DTD/sodipodi-0.dtd"
   xmlns:inkscape="http://www.inkscape.org/namespaces/inkscape"
   width="20"
   height="20"
   id="svg7348"
   version="1.1"
   inkscape:version="0.48.5 r10040"
   sodipodi:docname="symbol.svg">
  <defs
     id="defs7350" />
  <sodipodi:namedview
     id="base"
     pagecolor="#ffffff"
     bordercolor="#666666"
     borderopacity="1.0"
     inkscape:pageopacity="0.0"
     inkscape:pageshadow="2"
     inkscape:zoom="5.6568542"
     inkscape:cx="-8.2019146"
     inkscape:cy="30.156364"
     inkscape:document-units="px"
     inkscape:current-layer="layer1"
     showgrid="false"
     inkscape:window-width="1366"
     inkscape:window-height="715"
     inkscape:window-x="0"
     inkscape:window-y="0"
     inkscape:window-maximized="1" />
  <metadata
     id="metadata7353">
    <rdf:RDF>
      <cc:Work
         rdf:about="">
        <dc:format>image/svg+xml</dc:format>
        <dc:type
           rdf:resource="http://purl.org/dc/dcmitype/StillImage" />
        <dc:title></dc:title>
      </cc:Work>
    </rdf:RDF>
  </metadata>
  <g
     inkscape:label="Layer 1"
     inkscape:groupmode="layer"
     id="layer1"
     transform="translate(0,-1032.3622)">
    <g
       id="g12550"
       transform="translate(0,-0.76337517)">
      <path
         sodipodi:type="arc"
         style="fill:#0039a6;fill-opacity:1;stroke:#1a1a1a"
         id="path8748"
         sodipodi:cx="10.253048"
         sodipodi:cy="9.5701752"
         sodipodi:rx="9.0156116"
         sodipodi:ry="9.0156116"
         d="m 19.26866,9.5701752 c 0,4.9791848 -4.036427,9.0156118 -9.015612,9.0156118 -4.9791849,0 -9.0156117,-4.036427 -9.0156117,-9.0156118 0,-4.9791849 4.0364268,-9.01561168 9.0156117,-9.01561168 4.979185,0 9.015612,4.03642678 9.015612,9.01561168 z"
         transform="translate(-0.25304794,1033.5554)" />
      <path
         transform="translate(-0.25304794,1033.5554)"
         d="m 19.26866,9.5701752 c 0,4.9791848 -4.036427,9.0156118 -9.015612,9.0156118 -4.9791849,0 -9.0156117,-4.036427 -9.0156117,-9.0156118 0,-4.9791849 4.0364268,-9.01561168 9.0156117,-9.01561168 4.979185,0 9.015612,4.03642678 9.015612,9.01561168 z"
         sodipodi:ry="9.0156116"
         sodipodi:rx="9.0156116"
         sodipodi:cy="9.5701752"
         sodipodi:cx="10.253048"
         id="path8823"
         style="fill:#ffe000;fill-opacity:1;stroke:none"
         sodipodi:type="arc" />
      <path
         id="rect8813"
         transform="translate(0,1032.3622)"
         d="m 10,1.75 c -4.0354521,0 -7.4749859,2.6567574 -8.625,6.3125 l 17.25,0 C 17.474986,4.4067574 14.035452,1.75 10,1.75 z"
         style="fill:#d52b1e;fill-opacity:1;stroke:none"
         inkscape:connector-curvature="0" />
      <path
         id="rect8815"
         transform="translate(0,1032.3622)"
         d="m 1.375,13.46875 c 1.1500141,3.655743 4.5895479,6.3125 8.625,6.3125 4.035452,0 7.474986,-2.656757 8.625,-6.3125 l -17.25,0 z"
         style="fill:#007934;fill-opacity:1;stroke:none"
         inkscape:connector-curvature="0" />
    </g>
  </g>
</svg>
