<?xml version="1.0" encoding="UTF-8" standalone="no"?>
<!-- Created with Inkscape (http://www.inkscape.org/) -->

<svg
   xmlns:dc="http://purl.org/dc/elements/1.1/"
   xmlns:cc="http://creativecommons.org/ns#"
   xmlns:rdf="http://www.w3.org/1999/02/22-rdf-syntax-ns#"
   xmlns:svg="http://www.w3.org/2000/svg"
   xmlns="http://www.w3.org/2000/svg"
   xmlns:sodipodi="http://sodipodi.sourceforge.net/DTD/sodipodi-0.dtd"
   xmlns:inkscape="http://www.inkscape.org/namespaces/inkscape"
   width="40"
   height="60"
   id="svg4605"
   version="1.1"
   inkscape:version="0.48.5 r10040"
   sodipodi:docname="barrel.svg">
  <defs
     id="defs4607" />
  <sodipodi:namedview
     id="base"
     pagecolor="#ffffff"
     bordercolor="#666666"
     borderopacity="1.0"
     inkscape:pageopacity="0.0"
     inkscape:pageshadow="2"
     inkscape:zoom="4"
     inkscape:cx="29.565037"
     inkscape:cy="6.2266938"
     inkscape:document-units="px"
     inkscape:current-layer="layer1"
     showgrid="true"
     inkscape:snap-global="false"
     inkscape:snap-bbox="true"
     showguides="true"
     inkscape:guide-bbox="true"
     inkscape:window-width="1366"
     inkscape:window-height="715"
     inkscape:window-x="0"
     inkscape:window-y="0"
     inkscape:window-maximized="1">
    <inkscape:grid
       type="xygrid"
       id="grid4695"
       empspacing="5"
       visible="true"
       enabled="false"
       snapvisiblegridlinesonly="true" />
  </sodipodi:namedview>
  <metadata
     id="metadata4610">
    <rdf:RDF>
      <cc:Work
         rdf:about="">
        <dc:format>image/svg+xml</dc:format>
        <dc:type
           rdf:resource="http://purl.org/dc/dcmitype/StillImage" />
        <dc:title />
      </cc:Work>
    </rdf:RDF>
  </metadata>
  <g
     inkscape:label="Layer 1"
     inkscape:groupmode="layer"
     id="layer1"
     transform="translate(0,-992.3622)">
    <rect
       y="1053.2943"
       x="-33.046513"
       height="20"
       width="129.5"
       id="rect3200"
       style="fill:#543e2e;fill-opacity:1;stroke:none;display:inline" />
    <rect
       style="fill:#7a5943;fill-opacity:1;stroke:none;display:inline"
       id="rect2985"
       width="78.75"
       height="20"
       x="-25.867943"
       y="1036.7585" />
    <rect
       style="fill:#8296cc;fill-opacity:1;stroke:none;display:inline"
       id="rect2985-9"
       width="20"
       height="20"
       x="-34.278656"
       y="988.33002" />
    <g
       id="g4672"
       transform="translate(-31.428572,992.85714)">
      <rect
         style="fill:#1a1a1a;fill-opacity:1;stroke:none;display:inline"
         id="rect3795"
         width="20"
         height="20"
         x="-32.850082"
         y="10.830012" />
      <g
         id="g4665">
        <path
           style="fill:#ddd6a2;fill-opacity:1;stroke:#1a1a1a;stroke-width:1;display:inline"
           d="m -32.1542,22.934263 c -0.59913,-2.64418 6.36355,-1.31351 8.9778,0 2.9617,1.48808 2.2686,4.46805 0,5.75578 -2.53267,1.43763 -10.75269,2.17291 -8.9778,0 0.48128,-0.58921 0.48128,-3.63169 0,-5.75578 z"
           id="rect3799"
           inkscape:connector-curvature="0"
           sodipodi:nodetypes="sssss" />
        <path
           sodipodi:nodetypes="sssss"
           inkscape:connector-curvature="0"
           id="path3802"
           d="m -14.77216,22.759893 c -2.77896,-2.08903 -9.00901,-2.50787 -8.83943,1.57018 0.0252,0.60712 4.10537,-0.94281 1.49369,4.12055 -1.75281,3.39824 10.25558,2.09639 8.3524,-0.0237 -0.45159,-0.50305 1.88987,-3.48965 -1.00666,-5.66707 z"
           style="fill:#ddd6a2;fill-opacity:1;stroke:#1a1a1a;stroke-width:1;display:inline" />
        <path
           sodipodi:nodetypes="sssss"
           inkscape:connector-curvature="0"
           id="path3804"
           d="m -30.7167,17.121763 c 1.89757,-0.80197 3.99271,-0.76513 7.5403,-0.1875 3.27144,0.53267 3.0811,5.65555 0.8125,6.94328 -2.53267,1.43763 -9.66071,1.61518 -9.7903,-1.1875 -0.14264,-3.0849 -0.0532,-4.93826 1.4375,-5.56828 z"
           style="fill:#ddd6a2;fill-opacity:1;stroke:#1a1a1a;stroke-width:1;display:inline" />
        <path
           style="fill:#ddd6a2;fill-opacity:1;stroke:#1a1a1a;stroke-width:1;display:inline"
           d="m -14.77216,16.759903 c -2.77896,-2.08904 -10.32906,-2.22986 -8.83943,1.57017 0.56574,1.44319 -2.25244,1.38763 1.49369,4.12055 2.6057,1.90095 10.25558,2.09639 8.3524,-0.0237 -0.45159,-0.50305 1.88987,-3.48965 -1.00666,-5.66706 z"
           id="path3806"
           inkscape:connector-curvature="0"
           sodipodi:nodetypes="sssss" />
        <path
           style="fill:#ddd6a2;fill-opacity:1;stroke:#1a1a1a;stroke-width:1;stroke-linecap:round;stroke-linejoin:round;stroke-miterlimit:4;stroke-opacity:1;stroke-dasharray:none;display:inline"
           d="m -17.6579,11.946143 c -1.9079,0.86797 -11.95527,-1.69089 -13.78319,0 -0.98558,0.91171 -0.39379,1.72856 -0.9459,2.75 -0.28348,0.52447 1.46458,3.22007 2.2972,3.375 1.60357,0.2984 7.38722,-3.09427 11.21573,0.125 4.21035,3.54036 4.6848,0.0828 4.86465,-0.25 1.07905,-1.99631 0.4002,-7.84187 -3.64849,-6 z"
           id="path3812"
           inkscape:connector-curvature="0"
           sodipodi:nodetypes="sssssss" />
      </g>
    </g>
    <g
       id="g4661"
       transform="translate(-6.6018862,1029.2511)">
      <rect
         style="fill:#485579;fill-opacity:1;stroke:none;display:inline"
         id="rect3817"
         width="20"
         height="20"
         x="-32.850082"
         y="10.830012" />
      <path
         inkscape:connector-curvature="0"
         id="path3821"
         d="m -28.35008,20.080033 c 1.43337,-7.99535 11.625,8.375 11.625,0"
         style="fill:#485579;fill-opacity:1;stroke:#f9f9f9;stroke-width:1;stroke-linecap:round;stroke-linejoin:round;stroke-miterlimit:4;stroke-opacity:1;stroke-dasharray:none;display:inline" />
    </g>
    <path
       style="fill:#bf7442;fill-opacity:1;stroke:#1a1a1a;stroke-width:0.99999994000000003;stroke-linecap:round;stroke-linejoin:round;stroke-miterlimit:10;stroke-opacity:1"
       d="m 19.950513,996.98212 c 8.337416,0 15.049487,2.4216 15.049487,5.42958 0,0 4.242641,11.6001 4.242641,20.1251 0,8.5249 -4.242641,19.7759 -4.242641,19.7759 0,3.078 -6.712071,5.5559 -15.049487,5.5559 -8.337417,0 -15.0494881,-2.4779 -15.0494881,-5.5559 0,0 -4.24264069,-11.7042 -4.24264069,-20.2292 0,-8.5249 4.24264069,-19.6718 4.24264069,-19.6718 0,-3.00798 6.7120711,-5.42958 15.0494881,-5.42958 z"
       id="rect4692"
       inkscape:connector-curvature="0"
       sodipodi:nodetypes="sszssszss" />
    <path
       sodipodi:type="arc"
       style="fill:#7a5943;fill-opacity:1;stroke:#1a1a1a;stroke-width:1;stroke-linecap:round;stroke-linejoin:round;stroke-miterlimit:10;stroke-opacity:1;stroke-dasharray:none"
       id="path4697"
       sodipodi:cx="20"
       sodipodi:cy="7.5625"
       sodipodi:rx="13.3125"
       sodipodi:ry="3.25"
       d="m 33.3125,7.5625 c 0,1.7949254 -5.960209,3.25 -13.3125,3.25 -7.352291,0 -13.3125,-1.4550746 -13.3125,-3.25 0,-1.7949254 5.960209,-3.25 13.3125,-3.25 7.352291,0 13.3125,1.4550746 13.3125,3.25 z"
       transform="translate(0,992.3622)" />
    <path
       sodipodi:type="arc"
       style="fill:#7a5943;fill-opacity:1;stroke:#1a1a1a;stroke-width:0.69393098;stroke-linecap:round;stroke-linejoin:round;stroke-miterlimit:10;stroke-opacity:1;stroke-dasharray:none"
       id="path4713"
       sodipodi:cx="20"
       sodipodi:cy="7.5625"
       sodipodi:rx="13.3125"
       sodipodi:ry="3.25"
       d="m 33.3125,7.5625 c 0,1.7949254 -5.960209,3.25 -13.3125,3.25 -7.352291,0 -13.3125,-1.4550746 -13.3125,-3.25 0,-1.7949254 5.960209,-3.25 13.3125,-3.25 7.352291,0 13.3125,1.4550746 13.3125,3.25 z"
       transform="matrix(1.4178404,0,0,1.4646711,37.518193,1009.1606)" />
    <path
       sodipodi:type="arc"
       style="fill:#7a5943;fill-opacity:1;stroke:#1a1a1a;stroke-width:0.70092881;stroke-linecap:round;stroke-linejoin:round;stroke-miterlimit:10;stroke-opacity:1;stroke-dasharray:none"
       id="path4715"
       sodipodi:cx="20"
       sodipodi:cy="7.5625"
       sodipodi:rx="13.3125"
       sodipodi:ry="3.25"
       d="m 33.3125,7.5625 c 0,1.7949254 -5.960209,3.25 -13.3125,3.25 -7.352291,0 -13.3125,-1.4550746 -13.3125,-3.25 0,-1.7949254 5.960209,-3.25 13.3125,-3.25 7.352291,0 13.3125,1.4550746 13.3125,3.25 z"
       transform="matrix(1.3896714,0,0,1.4646711,38.081573,1004.6606)" />
    <path
       style="fill:none;fill-opacity:1;stroke:#945830;stroke-width:1;stroke-linecap:round;stroke-linejoin:round;stroke-miterlimit:10;stroke-opacity:1;stroke-dasharray:none"
       d="M 10,9.7499999 C 6.2181092,23.625 6.7182122,37.5 10,51.375"
       id="path4725"
       inkscape:connector-curvature="0"
       transform="translate(0,992.3622)"
       sodipodi:nodetypes="cc" />
    <path
       inkscape:connector-curvature="0"
       id="path4727"
       d="m 20.125,1003.2372 0,41.1187"
       style="fill:#7a5943;fill-opacity:1;stroke:#945830;stroke-width:1;stroke-linecap:round;stroke-linejoin:round;stroke-miterlimit:10;stroke-opacity:1;stroke-dasharray:none"
       sodipodi:nodetypes="cc" />
    <path
       inkscape:connector-curvature="0"
       id="path4729"
       d="m 30.32932,1002.1122 c 2.966421,15.5701 3.61961,29.8183 0,41.625"
       style="fill:none;fill-opacity:1;stroke:#945830;stroke-width:1;stroke-linecap:round;stroke-linejoin:round;stroke-miterlimit:10;stroke-opacity:1;stroke-dasharray:none"
       sodipodi:nodetypes="cc" />
    <g
       id="g3117">
      <path
         style="fill:#7a5943;fill-opacity:1;stroke:#1a1a1a;stroke-width:0.99999994;stroke-linecap:round;stroke-linejoin:round;stroke-miterlimit:10;stroke-opacity:1"
         d="m 5.4292536,1042.5185 c -0.320476,1.0515 -0.4466432,1.1544 -0.3866127,1.7822 0.1885896,1.972 6.8162581,3.5615 14.9276001,3.5615 8.111343,0 14.479059,-1.608 14.686884,-3.5782 0.06959,-0.6597 0.08923,-1.1504 -0.145896,-1.7655 -2.702133,1.1611 -8.946505,1.9538 -14.540988,1.9538 -5.594482,0 -11.8388541,-0.7927 -14.5409874,-1.9538 z"
         id="path4721"
         inkscape:connector-curvature="0"
         sodipodi:nodetypes="cssscsc" />
      <path
         sodipodi:nodetypes="cssscsc"
         inkscape:connector-curvature="0"
         id="path4718"
         d="m 1.3125,1021.2685 c -0.41186299,1.3959 -0.57400803,1.5325 -0.49685922,2.3658 0.24236782,2.6178 8.75998442,3.3529 19.18435922,3.3529 10.424375,0 18.607911,-0.7596 18.875,-3.375 0.08944,-0.8758 0.114678,-1.5272 -0.1875,-2.3437 -3.472674,1.5414 -11.497693,1.2187 -18.6875,1.2187 -7.189807,0 -15.2148256,0.3227 -18.6875,-1.2187 z"
         style="fill:#7a5943;fill-opacity:1;stroke:#1a1a1a;stroke-width:0.99999994;stroke-linecap:round;stroke-linejoin:round;stroke-miterlimit:10;stroke-opacity:1" />
      <path
         sodipodi:nodetypes="cssscsc"
         inkscape:connector-curvature="0"
         id="path4723"
         d="m 5.7588738,999.8976 c -0.9983805,-0.0601 -1.1812701,1.6051 -1.1225992,2.5018 0.1843201,2.8162 7.4066714,3.4985 15.3343644,3.4985 7.927693,0 15.015134,-0.7086 15.218254,-3.5224 0.06802,-0.9422 0.146794,-3.07406 -0.946912,-2.4779 -2.640954,1.6581 -8.803524,2.6985 -14.271342,2.6985 -5.467817,0 -11.5708113,-1.0404 -14.2117652,-2.6985 z"
         style="fill:#7a5943;fill-opacity:1;stroke:#1a1a1a;stroke-width:0.99999994;stroke-linecap:round;stroke-linejoin:round;stroke-miterlimit:10;stroke-opacity:1" />
    </g>
    <path
       sodipodi:type="arc"
       style="fill:#945830;fill-opacity:1;stroke:none"
       id="path3122"
       sodipodi:cx="26.125"
       sodipodi:cy="22.5"
       sodipodi:rx="2.5"
       sodipodi:ry="2.5"
       d="m 28.625,22.5 a 2.5,2.5 0 1 1 -5,0 2.5,2.5 0 1 1 5,0 z"
       transform="translate(0,992.3622)" />
    <path
       transform="translate(1.25,992.3622)"
       d="m 28.625,22.5 a 2.5,2.5 0 1 1 -5,0 2.5,2.5 0 1 1 5,0 z"
       sodipodi:ry="2.5"
       sodipodi:rx="2.5"
       sodipodi:cy="22.5"
       sodipodi:cx="26.125"
       id="path3124"
       style="fill:#ce8453;fill-opacity:1;stroke:none"
       sodipodi:type="arc" />
  </g>
</svg>
