<?xml version="1.0" encoding="UTF-8" standalone="no"?>
<!-- Created with Inkscape (http://www.inkscape.org/) -->

<svg
   xmlns:dc="http://purl.org/dc/elements/1.1/"
   xmlns:cc="http://creativecommons.org/ns#"
   xmlns:rdf="http://www.w3.org/1999/02/22-rdf-syntax-ns#"
   xmlns:svg="http://www.w3.org/2000/svg"
   xmlns="http://www.w3.org/2000/svg"
   xmlns:xlink="http://www.w3.org/1999/xlink"
   xmlns:sodipodi="http://sodipodi.sourceforge.net/DTD/sodipodi-0.dtd"
   xmlns:inkscape="http://www.inkscape.org/namespaces/inkscape"
   width="48"
   height="48"
   id="svg2"
   version="1.1"
   inkscape:version="0.48.5 r10040"
   sodipodi:docname="food.xcf">
  <defs
     id="defs4">
    <linearGradient
       id="linearGradient14153">
      <stop
         id="stop14155"
         offset="0"
         style="stop-color:#afa953;stop-opacity:1;" />
      <stop
         id="stop14157"
         offset="1"
         style="stop-color:#bdd24e;stop-opacity:1;" />
    </linearGradient>
    <linearGradient
       id="linearGradient14153-7">
      <stop
         style="stop-color:#afa953;stop-opacity:1;"
         offset="0"
         id="stop14155-1" />
      <stop
         style="stop-color:#bdd24e;stop-opacity:1;"
         offset="1"
         id="stop14157-6" />
    </linearGradient>
    <linearGradient
       inkscape:collect="always"
       xlink:href="#linearGradient14153-7"
       id="linearGradient14161-6"
       x1="683.27295"
       y1="1041.5829"
       x2="683.27295"
       y2="1302.9337"
       gradientUnits="userSpaceOnUse" />
    <linearGradient
       y2="1302.9337"
       x2="683.27295"
       y1="1041.5829"
       x1="683.27295"
       gradientTransform="matrix(0.76898824,0,0,0.91700115,89.45124,-170.93314)"
       gradientUnits="userSpaceOnUse"
       id="linearGradient14369"
       xlink:href="#linearGradient14153-2"
       inkscape:collect="always" />
    <linearGradient
       id="linearGradient14153-2">
      <stop
         id="stop14155-4"
         offset="0"
         style="stop-color:#afa953;stop-opacity:1;" />
      <stop
         id="stop14157-2"
         offset="1"
         style="stop-color:#bdd24e;stop-opacity:1;" />
    </linearGradient>
    <linearGradient
       gradientUnits="userSpaceOnUse"
       y2="1302.9337"
       x2="683.27295"
       y1="1041.5829"
       x1="683.27295"
       id="linearGradient14161"
       xlink:href="#linearGradient14153-2"
       inkscape:collect="always" />
  </defs>
  <sodipodi:namedview
     id="base"
     pagecolor="#ffffff"
     bordercolor="#666666"
     borderopacity="1.0"
     inkscape:pageopacity="0.0"
     inkscape:pageshadow="2"
     inkscape:zoom="1"
     inkscape:cx="15.032199"
     inkscape:cy="13.589483"
     inkscape:document-units="px"
     inkscape:current-layer="g16754"
     showgrid="false"
     showguides="true"
     inkscape:guide-bbox="true"
     inkscape:snap-global="false"
     borderlayer="true"
     inkscape:showpageshadow="false"
     inkscape:window-width="1366"
     inkscape:window-height="715"
     inkscape:window-x="0"
     inkscape:window-y="0"
     inkscape:window-maximized="1">
    <sodipodi:guide
       orientation="0,1"
       position="-20,101.42857"
       id="guide2985" />
    <sodipodi:guide
       orientation="1,0"
       position="281,243"
       id="guide8808" />
  </sodipodi:namedview>
  <metadata
     id="metadata7">
    <rdf:RDF>
      <cc:Work
         rdf:about="">
        <dc:format>image/svg+xml</dc:format>
        <dc:type
           rdf:resource="http://purl.org/dc/dcmitype/StillImage" />
        <dc:title></dc:title>
      </cc:Work>
    </rdf:RDF>
  </metadata>
  <g
     transform="translate(0,-1004.3622)"
     id="g16754"
     inkscape:groupmode="layer"
     inkscape:label="eaten">
    <g
       id="g16940"
       transform="matrix(1,0,0,0.9,-0.1767767,104.25685)">
      <path
         sodipodi:type="star"
         style="fill:#1a1a1a;fill-opacity:1;stroke:#1a1a1a;stroke-width:1.05409253;stroke-linecap:round;stroke-linejoin:round;stroke-miterlimit:4;stroke-opacity:1;stroke-dasharray:none"
         id="path16926"
         sodipodi:sides="5"
         sodipodi:cx="8.1317282"
         sodipodi:cy="40.045048"
         sodipodi:r1="3"
         sodipodi:r2="1.164"
         sodipodi:arg1="0.78539816"
         sodipodi:arg2="1.4137167"
         inkscape:flatsided="true"
         inkscape:rounded="0.1"
         inkscape:randomized="0.6"
         d="M 10.387538,43.216411 C 10.186756,43.453184 6.9385827,42.362643 6.5264974,42.239532 6.114412,42.116421 4.2190613,40.417446 3.9809198,40.133215 3.7427784,39.848985 7.223467,38.248334 7.5531407,38.142813 c 0.3296738,-0.105521 2.5626763,0.498271 2.4526373,0.899976 -0.1100389,0.401706 0.582542,3.93685 0.38176,4.173622 z"
         transform="matrix(1,0,-0.99999396,1,42.257942,1004.3622)"
         inkscape:transform-center-x="-0.46182241"
         inkscape:transform-center-y="0.023090511" />
      <path
         sodipodi:type="star"
         style="fill:#1a1a1a;fill-opacity:1;stroke:#1a1a1a;stroke-width:1.05409253;stroke-linecap:round;stroke-linejoin:round;stroke-miterlimit:4;stroke-opacity:1;stroke-dasharray:none"
         id="path16928"
         sodipodi:sides="5"
         sodipodi:cx="17.854446"
         sodipodi:cy="40.752155"
         sodipodi:r1="1.7765838"
         sodipodi:r2="1.4372865"
         sodipodi:arg1="1.4711277"
         sodipodi:arg2="2.0994462"
         inkscape:flatsided="true"
         inkscape:rounded="0.1"
         inkscape:randomized="0.6"
         d="m 18.32251,42.695615 c -0.180765,-0.0082 -0.957055,-0.908993 -1.081588,-1.046743 -0.124534,-0.137751 0.129997,-2.50992 0.31452,-2.533715 0.184524,-0.0238 1.045308,0.377095 1.18642,0.554332 0.141113,0.177237 1.811069,2.040266 1.624816,2.182785 -0.186253,0.142518 -1.863403,0.85151 -2.044168,0.843341 z"
         transform="matrix(1,0,-0.99999396,1,42.342899,1004.3622)"
         inkscape:transform-center-x="-0.20303293"
         inkscape:transform-center-y="0.15275852" />
      <path
         sodipodi:type="star"
         style="fill:#1a1a1a;fill-opacity:1;stroke:#1a1a1a;stroke-width:1.05409253;stroke-linecap:round;stroke-linejoin:round;stroke-miterlimit:4;stroke-opacity:1;stroke-dasharray:none"
         id="path16930"
         sodipodi:sides="5"
         sodipodi:cx="30.759146"
         sodipodi:cy="41.105709"
         sodipodi:r1="2.2638464"
         sodipodi:r2="1.8314902"
         sodipodi:arg1="0.67474094"
         sodipodi:arg2="1.3030595"
         inkscape:flatsided="true"
         inkscape:rounded="0.1"
         inkscape:randomized="0.6"
         d="m 31.836084,42.319166 c -0.06599,0.178449 -1.856357,0.466779 -2.166175,0.603428 -0.309818,0.136649 -1.708717,-1.186899 -1.521901,-1.319435 0.186816,-0.132537 2.668159,-3.420284 2.801301,-3.60877 0.133143,-0.188485 2.081849,0.68407 2.029315,0.9314 -0.05253,0.24733 -1.076551,3.214928 -1.14254,3.393377 z"
         transform="matrix(1,0,-0.99999396,1,42.696451,1004.3622)"
         inkscape:transform-center-x="-0.57380597"
         inkscape:transform-center-y="-0.65549661" />
      <path
         sodipodi:type="star"
         style="fill:#1a1a1a;fill-opacity:1;stroke:#1a1a1a;stroke-width:1.05409253;stroke-linecap:round;stroke-linejoin:round;stroke-miterlimit:4;stroke-opacity:1;stroke-dasharray:none"
         id="path16932"
         sodipodi:sides="5"
         sodipodi:cx="24.748737"
         sodipodi:cy="37.039845"
         sodipodi:r1="2.2150056"
         sodipodi:r2="1.7919772"
         sodipodi:arg1="1.0714496"
         sodipodi:arg2="1.6997681"
         inkscape:flatsided="true"
         inkscape:rounded="0.1"
         inkscape:randomized="0.6"
         d="m 24.596418,40.054653 c -0.205362,0.05973 -2.304349,-1.238448 -2.513014,-1.323125 -0.208664,-0.08468 0.747057,-3.407788 0.738755,-3.73508 -0.0083,-0.327292 3.270473,1.100226 3.529571,1.04369 0.259098,-0.05654 0.397585,-0.516255 0.549576,-0.24932 0.15199,0.266934 -2.099527,4.20411 -2.304888,4.263835 z"
         transform="matrix(1,0,-0.99999396,1,38.630611,1004.3622)"
         inkscape:transform-center-x="0.47179787"
         inkscape:transform-center-y="0.46229426" />
      <path
         sodipodi:type="star"
         style="fill:#1a1a1a;fill-opacity:1;stroke:#1a1a1a;stroke-width:1.05409253;stroke-linecap:round;stroke-linejoin:round;stroke-miterlimit:4;stroke-opacity:1;stroke-dasharray:none"
         id="path16934"
         sodipodi:sides="5"
         sodipodi:cx="14.495689"
         sodipodi:cy="35.979183"
         sodipodi:r1="0.79056942"
         sodipodi:r2="0.63958406"
         sodipodi:arg1="0.46364761"
         sodipodi:arg2="1.0919661"
         inkscape:flatsided="true"
         inkscape:rounded="0.1"
         inkscape:randomized="0.6"
         d="m 14.930768,36.283478 c 0.01024,0.08754 -0.26276,0.927662 -0.302983,0.857959 -0.04022,-0.0697 -0.596702,-0.512952 -0.634113,-0.626053 -0.03741,-0.1131 -0.341955,-1.487762 -0.278441,-1.461531 0.06351,0.02623 1.401278,0.499279 1.494781,0.554419 0.0935,0.05514 -0.289482,0.587663 -0.279244,0.675206 z"
         transform="matrix(1,0,-0.99999396,1,37.569956,1004.3622)"
         inkscape:transform-center-x="-0.010817803"
         inkscape:transform-center-y="0.12032838" />
      <path
         sodipodi:type="star"
         style="fill:#1a1a1a;fill-opacity:1;stroke:#1a1a1a;stroke-width:1.05409253;stroke-linecap:round;stroke-linejoin:round;stroke-miterlimit:4;stroke-opacity:1;stroke-dasharray:none"
         id="path16936"
         sodipodi:sides="5"
         sodipodi:cx="32.350136"
         sodipodi:cy="35.095303"
         sodipodi:r1="1.6770509"
         sodipodi:r2="1.3567626"
         sodipodi:arg1="0.32175055"
         sodipodi:arg2="0.95006909"
         inkscape:flatsided="true"
         inkscape:rounded="0.1"
         inkscape:randomized="0.6"
         d="m 34.645914,35.236601 c -0.148406,0.200785 -2.116673,1.52232 -2.338522,1.412811 -0.221849,-0.109509 -0.583016,0.02693 -0.653292,-0.117974 -0.07028,-0.144901 -0.607727,-1.964688 -0.497521,-2.10272 0.110207,-0.138032 1.961194,-1.31175 2.132923,-1.264643 0.171729,0.04711 1.504819,1.87174 1.356412,2.072526 z"
         transform="matrix(1,0,-0.99999396,1,36.68608,1004.3622)"
         inkscape:transform-center-x="-0.37530163"
         inkscape:transform-center-y="-0.18603114" />
      <path
         sodipodi:type="star"
         style="fill:#1a1a1a;fill-opacity:1;stroke:#1a1a1a;stroke-width:1.05409253;stroke-linecap:round;stroke-linejoin:round;stroke-miterlimit:4;stroke-opacity:1;stroke-dasharray:none"
         id="path16938"
         sodipodi:sides="5"
         sodipodi:cx="37.830212"
         sodipodi:cy="40.928932"
         sodipodi:r1="1.5103807"
         sodipodi:r2="1.2219237"
         sodipodi:arg1="1.2120257"
         sodipodi:arg2="1.8403442"
         inkscape:flatsided="true"
         inkscape:rounded="0.1"
         inkscape:randomized="0.6"
         d="m 38.530496,41.607954 c -0.151583,-0.04871 -2.170007,0.541175 -2.214925,0.374555 -0.04492,-0.16662 -0.440244,-2.349828 -0.420332,-2.561147 0.01991,-0.21132 2.892874,-0.233684 3.044196,-0.156652 0.151321,0.07703 0.668663,1.013375 0.85084,1.148337 0.182177,0.134961 -1.108196,1.243616 -1.259779,1.194907 z"
         transform="matrix(1,0,-0.99999396,1,42.519675,1004.3622)"
         inkscape:transform-center-x="-0.10497424"
         inkscape:transform-center-y="-0.31074258" />
    </g>
    <g
       id="g16949"
       style="fill:#d38d5f;fill-opacity:1">
      <path
         inkscape:transform-center-y="0.023090511"
         inkscape:transform-center-x="0.45980645"
         transform="translate(0,1004.3622)"
         d="M 10.387538,43.216411 C 10.186756,43.453184 6.9385827,42.362643 6.5264974,42.239532 6.114412,42.116421 4.2190613,40.417446 3.9809198,40.133215 3.7427784,39.848985 7.223467,38.248334 7.5531407,38.142813 c 0.3296738,-0.105521 2.5626763,0.498271 2.4526373,0.899976 -0.1100389,0.401706 0.582542,3.93685 0.38176,4.173622 z"
         inkscape:randomized="0.6"
         inkscape:rounded="0.1"
         inkscape:flatsided="true"
         sodipodi:arg2="1.4137167"
         sodipodi:arg1="0.78539816"
         sodipodi:r2="1.164"
         sodipodi:r1="3"
         sodipodi:cy="40.045048"
         sodipodi:cx="8.1317282"
         sodipodi:sides="5"
         id="path16898"
         style="fill:#d38d5f;fill-opacity:1;stroke:#1a1a1a;stroke-width:1;stroke-linecap:round;stroke-linejoin:round;stroke-miterlimit:4;stroke-opacity:1;stroke-dasharray:none"
         sodipodi:type="star" />
      <path
         inkscape:transform-center-y="0.15275852"
         inkscape:transform-center-x="-0.94007195"
         transform="translate(0,1004.3622)"
         d="m 18.32251,42.695615 c -0.180765,-0.0082 -0.957055,-0.908993 -1.081588,-1.046743 -0.124534,-0.137751 0.129997,-2.50992 0.31452,-2.533715 0.184524,-0.0238 1.045308,0.377095 1.18642,0.554332 0.141113,0.177237 1.811069,2.040266 1.624816,2.182785 -0.186253,0.142518 -1.863403,0.85151 -2.044168,0.843341 z"
         inkscape:randomized="0.6"
         inkscape:rounded="0.1"
         inkscape:flatsided="true"
         sodipodi:arg2="2.0994462"
         sodipodi:arg1="1.4711277"
         sodipodi:r2="1.4372865"
         sodipodi:r1="1.7765838"
         sodipodi:cy="40.752155"
         sodipodi:cx="17.854446"
         sodipodi:sides="5"
         id="path16900"
         style="fill:#d38d5f;fill-opacity:1;stroke:#1a1a1a;stroke-width:1;stroke-linecap:round;stroke-linejoin:round;stroke-miterlimit:4;stroke-opacity:1;stroke-dasharray:none"
         sodipodi:type="star" />
      <path
         inkscape:transform-center-y="-0.65549661"
         inkscape:transform-center-x="0.20385777"
         transform="translate(0,1004.3622)"
         d="m 31.836084,42.319166 c -0.06599,0.178449 -1.856357,0.466779 -2.166175,0.603428 -0.309818,0.136649 -1.708717,-1.186899 -1.521901,-1.319435 0.186816,-0.132537 2.668159,-3.420284 2.801301,-3.60877 0.133143,-0.188485 2.081849,0.68407 2.029315,0.9314 -0.05253,0.24733 -1.076551,3.214928 -1.14254,3.393377 z"
         inkscape:randomized="0.6"
         inkscape:rounded="0.1"
         inkscape:flatsided="true"
         sodipodi:arg2="1.3030595"
         sodipodi:arg1="0.67474094"
         sodipodi:r2="1.8314901"
         sodipodi:r1="2.2638463"
         sodipodi:cy="41.105709"
         sodipodi:cx="30.759145"
         sodipodi:sides="5"
         id="path16902"
         style="fill:#d38d5f;fill-opacity:1;stroke:#1a1a1a;stroke-width:1;stroke-linecap:round;stroke-linejoin:round;stroke-miterlimit:4;stroke-opacity:1;stroke-dasharray:none"
         sodipodi:type="star" />
      <path
         inkscape:transform-center-y="0.46229426"
         inkscape:transform-center-x="0.26760592"
         transform="translate(0,1004.3622)"
         d="m 24.596418,40.054653 c -0.205362,0.05973 -2.304349,-1.238448 -2.513014,-1.323125 -0.208664,-0.08468 0.747057,-3.407788 0.738755,-3.73508 -0.0083,-0.327292 3.270473,1.100226 3.529571,1.04369 0.259098,-0.05654 0.397585,-0.516255 0.549576,-0.24932 0.15199,0.266934 -2.099527,4.20411 -2.304888,4.263835 z"
         inkscape:randomized="0.6"
         inkscape:rounded="0.1"
         inkscape:flatsided="true"
         sodipodi:arg2="1.6997681"
         sodipodi:arg1="1.0714496"
         sodipodi:r2="1.7919772"
         sodipodi:r1="2.2150056"
         sodipodi:cy="37.039845"
         sodipodi:cx="24.748737"
         sodipodi:sides="5"
         id="path16904"
         style="fill:#d38d5f;fill-opacity:1;stroke:#1a1a1a;stroke-width:1;stroke-linecap:round;stroke-linejoin:round;stroke-miterlimit:4;stroke-opacity:1;stroke-dasharray:none"
         sodipodi:type="star" />
      <path
         inkscape:transform-center-y="0.12032838"
         inkscape:transform-center-x="0.030049388"
         transform="translate(0,1004.3622)"
         d="m 14.930768,36.283478 c 0.01024,0.08754 -0.26276,0.927662 -0.302983,0.857959 -0.04022,-0.0697 -0.596702,-0.512952 -0.634113,-0.626053 -0.03741,-0.1131 -0.341955,-1.487762 -0.278441,-1.461531 0.06351,0.02623 1.401278,0.499279 1.494781,0.554419 0.0935,0.05514 -0.289482,0.587663 -0.279244,0.675206 z"
         inkscape:randomized="0.6"
         inkscape:rounded="0.1"
         inkscape:flatsided="true"
         sodipodi:arg2="1.0919661"
         sodipodi:arg1="0.46364761"
         sodipodi:r2="0.63958409"
         sodipodi:r1="0.79056942"
         sodipodi:cy="35.979185"
         sodipodi:cx="14.495689"
         sodipodi:sides="5"
         id="path16906"
         style="fill:#d38d5f;fill-opacity:1;stroke:#1a1a1a;stroke-width:1;stroke-linecap:round;stroke-linejoin:round;stroke-miterlimit:4;stroke-opacity:1;stroke-dasharray:none"
         sodipodi:type="star" />
      <path
         inkscape:transform-center-y="-0.18603114"
         inkscape:transform-center-x="-0.54944438"
         transform="translate(0,1004.3622)"
         d="m 34.645914,35.236601 c -0.148406,0.200785 -2.116673,1.52232 -2.338522,1.412811 -0.221849,-0.109509 -0.583016,0.02693 -0.653292,-0.117974 -0.07028,-0.144901 -0.607727,-1.964688 -0.497521,-2.10272 0.110207,-0.138032 1.961194,-1.31175 2.132923,-1.264643 0.171729,0.04711 1.504819,1.87174 1.356412,2.072526 z"
         inkscape:randomized="0.6"
         inkscape:rounded="0.1"
         inkscape:flatsided="true"
         sodipodi:arg2="0.95006909"
         sodipodi:arg1="0.32175055"
         sodipodi:r2="1.3567627"
         sodipodi:r1="1.677051"
         sodipodi:cy="35.095301"
         sodipodi:cx="32.350135"
         sodipodi:sides="5"
         id="path16908"
         style="fill:#d38d5f;fill-opacity:1;stroke:#1a1a1a;stroke-width:1;stroke-linecap:round;stroke-linejoin:round;stroke-miterlimit:4;stroke-opacity:1;stroke-dasharray:none"
         sodipodi:type="star" />
      <path
         inkscape:transform-center-y="-0.31074258"
         inkscape:transform-center-x="-0.020971555"
         transform="translate(0,1004.3622)"
         d="m 38.530496,41.607954 c -0.151583,-0.04871 -2.170007,0.541175 -2.214925,0.374555 -0.04492,-0.16662 -0.440244,-2.349828 -0.420332,-2.561147 0.01991,-0.21132 2.892874,-0.233684 3.044196,-0.156652 0.151321,0.07703 0.668663,1.013375 0.85084,1.148337 0.182177,0.134961 -1.108196,1.243616 -1.259779,1.194907 z"
         inkscape:randomized="0.6"
         inkscape:rounded="0.1"
         inkscape:flatsided="true"
         sodipodi:arg2="1.8403442"
         sodipodi:arg1="1.2120257"
         sodipodi:r2="1.2219237"
         sodipodi:r1="1.5103807"
         sodipodi:cy="40.928932"
         sodipodi:cx="37.830213"
         sodipodi:sides="5"
         id="path16910"
         style="fill:#d38d5f;fill-opacity:1;stroke:#1a1a1a;stroke-width:1;stroke-linecap:round;stroke-linejoin:round;stroke-miterlimit:4;stroke-opacity:1;stroke-dasharray:none"
         sodipodi:type="star" />
    </g>
  </g>
  <g
     inkscape:label="full"
     inkscape:groupmode="layer"
     id="layer1"
     transform="translate(0,-1004.3622)"
     style="display:inline">
    <g
       id="layer6-7"
       inkscape:label="marraqueta"
       transform="matrix(1.8820538,0,0,1.8820538,5.1794647,1009.5417)">
      <g
         id="g4576"
         transform="matrix(0.58216417,0,0,0.58216417,-157.66328,-86.647097)">
        <path
           transform="matrix(0.70967742,0,0,0.70967742,174.09677,95.589021)"
           style="fill:#d38d5f;fill-opacity:1;stroke:#1a1a1a;stroke-width:2.57212162;stroke-miterlimit:4;stroke-dasharray:none"
           d="m 176,97.362183 c 0,12.978687 -6.93959,23.499997 -15.5,23.499997 -8.56041,0 -15.5,-10.52131 -15.5,-23.499997 0,-6.276024 1.62271,-11.977429 4.26672,-16.192397 2.82375,-4.501502 6.81237,-3.432603 11.23328,-3.432603 4.37022,0 8.31802,-1.132873 11.1357,3.278446 2.70161,4.229593 4.3643,9.993685 4.3643,16.346554 z"
           id="path13139"
           inkscape:connector-curvature="0"
           sodipodi:nodetypes="sssssss" />
        <path
           sodipodi:nodetypes="sssssss"
           inkscape:connector-curvature="0"
           id="path4526"
           d="m 176,97.362183 c 0,12.978687 -6.93959,23.499997 -15.5,23.499997 -8.56041,0 -15.5,-10.52131 -15.5,-23.499997 0,-6.276024 1.62271,-11.977429 4.26672,-16.192397 2.82375,-4.501502 6.81237,-3.432603 11.23328,-3.432603 4.37022,0 8.31802,-1.132873 11.1357,3.278446 2.70161,4.229593 4.3643,9.993685 4.3643,16.346554 z"
           style="fill:#d38d5f;fill-opacity:1;stroke:none"
           transform="matrix(0.70967742,0,0,0.70967742,174.09677,95.589021)" />
        <path
           id="path4542"
           d="m 284.625,150.6875 c -1.59425,0.0527 -3.03454,0.40813 -4.21875,1.9375 -0.0603,0.0874 -0.12854,0.16054 -0.1875,0.25 -0.0693,0.0987 -0.12006,0.20499 -0.1875,0.3125 -0.22548,0.35971 -0.45244,0.73595 -0.65625,1.125 -0.0108,0.0205 -0.0205,0.0419 -0.0312,0.0625 -0.1656,0.3191 -0.31857,0.66275 -0.46875,1 -0.12508,0.28089 -0.22988,0.58231 -0.34375,0.875 -0.0661,0.16988 -0.15656,0.32633 -0.21875,0.5 -0.0259,0.0724 -0.0373,0.14575 -0.0625,0.21875 -0.13993,0.40481 -0.25691,0.79525 -0.375,1.21875 -0.11347,0.40693 -0.22023,0.82733 -0.3125,1.25 -0.0271,0.12428 -0.0373,0.24945 -0.0625,0.375 -0.0187,0.093 -0.0448,0.18755 -0.0625,0.28125 -0.0827,0.43875 -0.15969,0.89102 -0.21875,1.34375 -0.0654,0.50367 -0.12151,1.01248 -0.15625,1.53125 -10e-4,0.0211 0.001,0.0414 0,0.0625 -0.0349,0.54093 -0.0625,1.10149 -0.0625,1.65625 0,0.57567 0.0249,1.12685 0.0625,1.6875 6.7e-4,0.0102 -6.8e-4,0.0211 0,0.0312 0.0375,0.54986 0.0844,1.09232 0.15625,1.625 0.29181,2.18346 0.86184,4.18478 1.65625,5.96875 0.19768,0.44362 0.40083,0.86942 0.625,1.28125 0.004,0.008 -0.004,0.0232 0,0.0312 0.22034,0.40328 0.47472,0.78626 0.71875,1.15625 0.25315,0.38555 0.50438,0.74701 0.78125,1.09375 0.27164,0.33988 0.55115,0.63779 0.84375,0.9375 0.5852,0.59941 1.21699,1.14054 1.875,1.5625 1.31602,0.84487 2.76247,1.3125 4.28125,1.3125 0.66171,0 1.30791,-0.11008 1.9375,-0.28125 0.0513,-0.0138 0.10521,-0.0163 0.15625,-0.0312 C 286.62873,179.59008 284,172.8216 284,164.6875 c 0,-5.85806 1.38017,-10.99546 3.4375,-13.96875 -0.9705,-0.0237 -1.92451,-0.0606 -2.8125,-0.0312 z"
           style="fill:#c87137;fill-opacity:1;stroke:none"
           inkscape:connector-curvature="0" />
        <path
           id="path4568"
           d="m 291.34375,150.65625 c -1.05224,-0.0238 -2.18071,0.0937 -3.34375,0.0937 -3.13742,0 -5.31943,-1.64449 -7.32338,1.55012 0,1.69664 4.37211,2.44988 7.32338,2.44988 2.95127,0 7.03246,-0.52 7.48472,-2.20787 -1.49438,-2.58834 -2.52561,-1.83369 -4.14097,-1.88583 z"
           style="fill:#eec7a4;fill-opacity:1;stroke:#1a1a1a;stroke-width:0.34317082;stroke-miterlimit:4;stroke-dasharray:none"
           inkscape:connector-curvature="0"
           sodipodi:nodetypes="cscscc" />
        <path
           sodipodi:nodetypes="csccscc"
           inkscape:connector-curvature="0"
           id="path4549"
           d="m 284.03125,154.375 c -1.01496,2.91691 -1.625,6.45721 -1.625,10.3125 0,7.62158 2.32737,14.09166 5.59375,16.6875 1.08292,0 2.13656,-0.24541 3.125,-0.6875 -1.973,-2.95407 -3.34375,-8.9974 -3.34375,-16 0,-3.70345 0.38213,-7.11972 1.03125,-9.96875 -1.59874,-1.17529 -3.36352,-0.79695 -4.78125,-0.34375 z"
           style="fill:#a05a2c;fill-opacity:1;stroke:none" />
      </g>
    </g>
  </g>
</svg>
