<?xml version="1.0" encoding="UTF-8" standalone="no"?>
<!-- Created with Inkscape (http://www.inkscape.org/) -->

<svg
   xmlns:dc="http://purl.org/dc/elements/1.1/"
   xmlns:cc="http://creativecommons.org/ns#"
   xmlns:rdf="http://www.w3.org/1999/02/22-rdf-syntax-ns#"
   xmlns:svg="http://www.w3.org/2000/svg"
   xmlns="http://www.w3.org/2000/svg"
   xmlns:xlink="http://www.w3.org/1999/xlink"
   xmlns:sodipodi="http://sodipodi.sourceforge.net/DTD/sodipodi-0.dtd"
   xmlns:inkscape="http://www.inkscape.org/namespaces/inkscape"
   width="600"
   height="120"
   id="svg2"
   version="1.1"
   inkscape:version="0.48.5 r10040"
   sodipodi:docname="inventory-frame.svg">
  <defs
     id="defs4">
    <linearGradient
       id="linearGradient14153">
      <stop
         id="stop14155"
         offset="0"
         style="stop-color:#afa953;stop-opacity:1;" />
      <stop
         id="stop14157"
         offset="1"
         style="stop-color:#bdd24e;stop-opacity:1;" />
    </linearGradient>
    <linearGradient
       id="linearGradient14153-7">
      <stop
         style="stop-color:#afa953;stop-opacity:1;"
         offset="0"
         id="stop14155-1" />
      <stop
         style="stop-color:#bdd24e;stop-opacity:1;"
         offset="1"
         id="stop14157-6" />
    </linearGradient>
    <linearGradient
       inkscape:collect="always"
       xlink:href="#linearGradient14153-7"
       id="linearGradient14161-6"
       x1="683.27295"
       y1="1041.5829"
       x2="683.27295"
       y2="1302.9337"
       gradientUnits="userSpaceOnUse" />
    <linearGradient
       y2="1302.9337"
       x2="683.27295"
       y1="1041.5829"
       x1="683.27295"
       gradientTransform="matrix(0.76898824,0,0,0.91700115,89.45124,-170.93314)"
       gradientUnits="userSpaceOnUse"
       id="linearGradient14369"
       xlink:href="#linearGradient14153-2"
       inkscape:collect="always" />
    <linearGradient
       id="linearGradient14153-2">
      <stop
         id="stop14155-4"
         offset="0"
         style="stop-color:#afa953;stop-opacity:1;" />
      <stop
         id="stop14157-2"
         offset="1"
         style="stop-color:#bdd24e;stop-opacity:1;" />
    </linearGradient>
    <linearGradient
       gradientUnits="userSpaceOnUse"
       y2="1302.9337"
       x2="683.27295"
       y1="1041.5829"
       x1="683.27295"
       id="linearGradient14161"
       xlink:href="#linearGradient14153-2"
       inkscape:collect="always" />
  </defs>
  <sodipodi:namedview
     id="base"
     pagecolor="#ffffff"
     bordercolor="#666666"
     borderopacity="1.0"
     inkscape:pageopacity="0.0"
     inkscape:pageshadow="2"
     inkscape:zoom="1"
     inkscape:cx="280.01698"
     inkscape:cy="113.3488"
     inkscape:document-units="px"
     inkscape:current-layer="layer1"
     showgrid="false"
     showguides="true"
     inkscape:guide-bbox="true"
     inkscape:snap-global="false"
     borderlayer="true"
     inkscape:showpageshadow="false"
     inkscape:window-width="1366"
     inkscape:window-height="715"
     inkscape:window-x="0"
     inkscape:window-y="0"
     inkscape:window-maximized="1">
    <sodipodi:guide
       orientation="0,1"
       position="-20,101.42857"
       id="guide2985" />
    <sodipodi:guide
       orientation="1,0"
       position="281,243"
       id="guide8808" />
  </sodipodi:namedview>
  <metadata
     id="metadata7">
    <rdf:RDF>
      <cc:Work
         rdf:about="">
        <dc:format>image/svg+xml</dc:format>
        <dc:type
           rdf:resource="http://purl.org/dc/dcmitype/StillImage" />
        <dc:title></dc:title>
      </cc:Work>
    </rdf:RDF>
  </metadata>
  <g
     inkscape:label="Layer 1"
     inkscape:groupmode="layer"
     id="layer1"
     transform="translate(0,-932.36218)">
    <path
       transform="translate(0,932.36218)"
       inkscape:connector-curvature="0"
       id="path3480"
       d="m 0,18.57143 c 50.714286,0 83.571429,-17.1428587 121.42857,-17.1428587 37.85714,0 100.42857,18.1428587 131.14286,18.1428587 30.71428,0 53.81336,-17.8324671 60.24105,-17.7262246 38.66428,0.6390769 41.90835,28.0233096 91.34366,4.1070454 35.2092,-17.0338248 51.13502,25.8037112 60.19677,29.4493642 68.906,27.721739 105.08502,-31.6311539 123.50423,-32.5444723 67.86085,-3.36488713 99.28572,20.2857143 133.57143,20.2857143 34.28572,0 14.39976,-21.7142857 30,-21.7142857 C 816.17122,1.4285713 887.87483,23 912.71429,23 c 35,0 5.14285,-19.4285716 25.14285,-19.4285716 20,0 62.14286,15.0000016 62.14286,15.0000016 l 49.3789,141.90606 -1080.748955,-5.05969 z"
       style="fill:#777441;fill-opacity:1;stroke:none"
       sodipodi:nodetypes="csssssssssscccc" />
    <path
       inkscape:connector-curvature="0"
       id="path14184-1"
       d="m 230.9448,947.3944 0.25656,9.53556 2.40432,0.92349 -2.66079,-10.45905 z m 0.25656,9.53556 -19.97197,-7.59608 3.43021,10.71303 -18.33702,1.57005 19.07433,5.07948 -2.78902,0.69266 53.27992,0 -25.93469,-6.23386 16.50971,-10.80545 -25.06914,13.69144 -0.19227,-7.11127 z"
       style="fill:#bdd24e;fill-opacity:1;stroke:none" />
    <path
       inkscape:connector-curvature="0"
       id="path14204-3"
       d="m 218.99756,980.53367 -11.47666,56.81873 -11.73314,-50.64953 7.65457,54.01963 -17.7848,-16.4654 17.60638,22.9806 -7.79673,5.0501 34.43869,0 18.42447,-10.3898 -27.66578,5.411 18.36905,-32.3597 -23.94611,29.3189 z"
       style="fill:#bdd24e;fill-opacity:1;stroke:none"
       sodipodi:nodetypes="ccccccccccccc" />
    <path
       inkscape:connector-curvature="0"
       id="path14208-8"
       d="m 123.89351,916.9802 -7.95031,64.85738 -6.89242,-58.72928 2.46845,46.88122 -11.79724,1.02145 8.65559,21.75613 27.31317,0 17.47144,-59.0361 -25.26147,54.54214 -4.00721,-71.29294 z"
       style="fill:#bdd24e;fill-opacity:1;stroke:none" />
    <path
       inkscape:connector-curvature="0"
       id="path14210-8"
       d="m 31.36637,935.1839 0.25656,10.3404 2.40434,1.0015 -2.66079,-11.3419 z m 0.25656,10.3404 -19.97195,-8.2372 3.43019,11.6173 -18.33703,1.7025 19.07433,5.5083 -2.78901,0.7511 53.27992,0 -25.93469,-6.7601 16.50973,-11.7176 -25.06913,14.8472 -0.19228,-7.7115 z"
       style="fill:#bdd24e;fill-opacity:1;stroke:none" />
    <path
       inkscape:connector-curvature="0"
       id="path14214-8"
       d="m 65.79597,1018.9693 0.25656,13.2397 2.40434,1.2825 -2.66079,-14.5222 z m 0.25656,13.2397 -19.97195,-10.5467 3.43018,14.8745 -18.33702,2.1799 19.07433,7.0528 -2.78901,0.9616 53.27992,0 -25.9347,-8.6556 16.50974,-15.003 -25.06913,19.0103 -0.19228,-9.8738 z"
       style="fill:#bdd24e;fill-opacity:1;stroke:none" />
    <path
       style="fill:#bdd24e;fill-opacity:1;stroke:none"
       d="m 602.94522,932.9802 -11.47666,13.1448 -11.73313,-11.7174 3.65457,7.0604 -13.78481,1.6275 19.10639,4.5066 -9.29673,1.978 45.93871,0 6.92445,-2.4036 -27.66578,1.2519 18.36905,-7.4862 -18.94611,1.5773 -1.08995,-9.5393 z"
       id="path14331-0"
       inkscape:connector-curvature="0" />
    <path
       style="fill:#bdd24e;fill-opacity:1;stroke:none"
       d="m 309.99742,999.13702 -7.95031,20.35658 -6.89242,-18.4331 2.46845,14.7144 -11.79724,0.3206 8.65559,6.8283 27.31317,0 17.47144,-18.5293 -25.26147,17.1188 -4.00721,-22.37628 z"
       id="path14335-8"
       inkscape:connector-curvature="0" />
    <path
       inkscape:connector-curvature="0"
       id="path14337-5"
       d="m 395.42545,933.37792 -7.95028,20.35658 -6.89242,-18.43313 2.46843,14.71443 -11.79722,0.3206 8.65557,6.8283 27.31317,0 17.47146,-18.52931 -25.2615,17.11881 -4.00721,-22.37628 z"
       style="fill:#bdd24e;fill-opacity:1;stroke:none" />
    <path
       inkscape:connector-curvature="0"
       id="path5657"
       d="m 417.99742,943.13702 -7.95031,68.28108 -6.89242,-61.82925 2.46845,49.35576 -11.79724,1.07539 8.65559,22.9038 27.31317,0 17.47144,-62.15188 -25.26147,57.42068 -4.00721,-75.05558 z"
       style="fill:#bdd24e;fill-opacity:1;stroke:none" />
    <path
       style="fill:#bdd24e;fill-opacity:1;stroke:none"
       d="m 724.9448,947.3944 0.25656,9.53556 2.40432,0.92349 -2.66079,-10.45905 z m 0.25656,9.53556 -19.97197,-7.59608 3.43021,10.71303 -18.33702,1.57005 19.07433,5.07948 -2.78902,0.69266 53.27992,0 -25.93469,-6.23386 16.50971,-10.80545 -25.06914,13.69144 -0.19227,-7.11127 z"
       id="path5675"
       inkscape:connector-curvature="0" />
    <path
       sodipodi:nodetypes="ccccccccccccc"
       style="fill:#bdd24e;fill-opacity:1;stroke:none"
       d="m 712.99756,980.53367 -11.47666,56.81873 -11.73314,-50.64953 7.65457,54.01963 -17.7848,-16.4654 17.60638,22.9806 -7.79673,5.0501 34.43869,0 18.42447,-10.3898 -27.66578,5.411 18.36905,-32.3597 -23.94611,29.3189 z"
       id="path5677"
       inkscape:connector-curvature="0" />
    <path
       style="fill:#bdd24e;fill-opacity:1;stroke:none"
       d="m 559.79597,1018.9693 0.25656,13.2397 2.40434,1.2825 -2.66079,-14.5222 z m 0.25656,13.2397 -19.97195,-10.5467 3.43018,14.8745 -18.33702,2.1799 19.07433,7.0528 -2.78901,0.9616 53.27992,0 -25.9347,-8.6556 16.50974,-15.003 -25.06913,19.0103 -0.19228,-9.8738 z"
       id="path5683"
       inkscape:connector-curvature="0" />
    <path
       inkscape:connector-curvature="0"
       id="path5687"
       d="m 803.99742,999.13702 -7.95031,20.35658 -6.89242,-18.4331 2.46845,14.7144 -11.79724,0.3206 8.65559,6.8283 27.31317,0 17.47144,-18.5293 -25.26147,17.1188 -4.00721,-22.37628 z"
       style="fill:#bdd24e;fill-opacity:1;stroke:none" />
    <path
       style="fill:#bdd24e;fill-opacity:1;stroke:none"
       d="m 893.42545,933.37792 -7.95028,20.35658 -6.89242,-18.43313 2.09343,23.71443 -11.42222,-8.6794 10.28057,16.9533 25.68817,-10.125 17.47146,-18.52931 -25.2615,17.11881 z"
       id="path5689"
       inkscape:connector-curvature="0"
       sodipodi:nodetypes="cccccccccc" />
    <path
       style="fill:#bdd24e;fill-opacity:1;stroke:none"
       d="m 911.99742,943.13702 -7.95031,68.28108 -6.89242,-61.82925 2.46845,49.35576 -11.79724,1.07539 8.65559,22.9038 27.31317,0 17.47144,-62.15188 -25.26147,57.42068 -4.00721,-75.05558 z"
       id="path5691"
       inkscape:connector-curvature="0" />
    <path
       style="fill:#bdd24e;fill-opacity:1;stroke:none"
       d="m 618.99742,970.13702 -7.95031,20.35658 -6.89242,-18.4331 2.46845,14.7144 -11.79724,0.3206 8.65559,6.8283 27.31317,0 17.47144,-18.5293 -25.26147,17.1188 -4.00721,-22.37628 z"
       id="path5693"
       inkscape:connector-curvature="0" />
    <path
       sodipodi:nodetypes="ccccccccccccc"
       style="fill:#bdd24e;fill-opacity:1;stroke:none"
       d="m 481.99756,932.53367 -11.47666,33.85499 -11.73314,-30.17912 7.65457,32.18717 -17.7848,-9.81078 17.60638,13.69281 -7.79673,3.00906 34.43869,0 18.42447,-6.19068 -27.66578,3.2241 18.36905,-19.28127 -23.94611,17.46943 z"
       id="path5695"
       inkscape:connector-curvature="0" />
    <rect
       style="fill:#1a1a1a;fill-opacity:0.39428573000000000;stroke:#1a1a1a;stroke-width:4;stroke-miterlimit:4;stroke-dasharray:none"
       id="rect5788"
       width="280"
       height="85"
       x="1"
       y="968.36218"
       rx="0"
       ry="0" />
    <text
       xml:space="preserve"
       style="font-size:17.91027069000000083px;font-style:normal;font-variant:normal;font-weight:bold;font-stretch:normal;text-align:start;text-anchor:start;fill:#ffffff;fill-opacity:1;stroke:none;font-family:Monospace;-inkscape-font-specification:Monospace Bold"
       x="4.8441558"
       y="987.53339"
       id="text6558"><tspan
         sodipodi:role="line"
         id="tspan6560"
         x="4.8441558"
         y="987.53339">inventario</tspan></text>
    <rect
       style="fill:#ffffff;fill-opacity:1;stroke:#1a1a1a;stroke-width:1.84615386000000004;stroke-miterlimit:4;stroke-dasharray:none;opacity:0.5"
       id="rect8810"
       width="46.153847"
       height="46.153847"
       x="1.4230769"
       y="1004.7853" />
    <g
       id="layer3"
       inkscape:label="picota"
       style="fill:#000000;display:inline"
       transform="matrix(2.0897833,0,0,2.0897833,94.173952,1004.8046)">
      <path
         style="font-size:medium;font-style:normal;font-variant:normal;font-weight:normal;font-stretch:normal;text-indent:0;text-align:start;text-decoration:none;line-height:normal;letter-spacing:normal;word-spacing:normal;text-transform:none;direction:ltr;block-progression:tb;writing-mode:lr-tb;text-anchor:start;baseline-shift:baseline;color:#000000;fill:#000000;fill-opacity:1;fill-rule:nonzero;stroke:#ffff00;stroke-width:0.5;stroke-miterlimit:4;stroke-dasharray:none;marker:none;visibility:visible;display:inline;overflow:visible;enable-background:accumulate;font-family:Sans;-inkscape-font-specification:Sans"
         d="m 7.4374998,2.46875 0,1.5 0,14.40625 0,1.5 5.1250002,0 0,-1.5 0,-14.40625 0,-1.5 -5.1250002,0 z"
         id="path9618"
         inkscape:connector-curvature="0" />
      <path
         style="font-size:medium;font-style:normal;font-variant:normal;font-weight:normal;font-stretch:normal;text-indent:0;text-align:start;text-decoration:none;line-height:normal;letter-spacing:normal;word-spacing:normal;text-transform:none;direction:ltr;block-progression:tb;writing-mode:lr-tb;text-anchor:start;baseline-shift:baseline;color:#000000;fill:#000000;fill-opacity:1;stroke:#ffff00;stroke-width:0.5;stroke-miterlimit:4;stroke-dasharray:none;marker:none;visibility:visible;display:inline;overflow:visible;enable-background:accumulate;font-family:Sans;-inkscape-font-specification:Sans"
         d="m 9.890625,0.44520622 c -7.343514,0 -9.40352269,6.88509258 -9.4004284,8.37583738 l 0,0.7086329 0.8144405,0 0,-0.7086329 c -0.00283,-1.3645499 4.9067312,-5.242636 8.5859879,-5.242636 3.679257,0 8.876053,3.4950714 8.819702,5.2950694 l -0.02205,0.6522951 0.749691,0.076741 0.02205,-0.6522951 C 19.523929,6.9087197 17.234139,0.44520622 9.890625,0.44520622 z"
         id="path9620"
         inkscape:connector-curvature="0"
         sodipodi:nodetypes="zcccczccccz" />
    </g>
    <g
       inkscape:label="lanza"
       id="g10153"
       style="display:inline"
       transform="matrix(2.0897833,0,0,2.0897833,140.50325,1009.3818)">
      <path
         style="font-size:medium;font-style:normal;font-variant:normal;font-weight:normal;font-stretch:normal;text-indent:0;text-align:start;text-decoration:none;line-height:normal;letter-spacing:normal;word-spacing:normal;text-transform:none;direction:ltr;block-progression:tb;writing-mode:lr-tb;text-anchor:start;baseline-shift:baseline;color:#000000;fill:#000000;fill-opacity:1;fill-rule:nonzero;stroke:#ffff00;stroke-width:0.5;stroke-miterlimit:4;stroke-dasharray:none;marker:none;visibility:visible;display:inline;overflow:visible;enable-background:accumulate;font-family:Sans;-inkscape-font-specification:Sans"
         d="M 19.8125,0.1875 11.40625,2.4375 13.8125,4.875 1.53125,17.15625 0.84375,17.875 2.25,19.28125 2.96875,18.59375 15.25,6.3125 l 2.3125,2.28125 2.25,-8.40625 z"
         id="path10159"
         inkscape:connector-curvature="0" />
    </g>
    <g
       id="layer4"
       inkscape:label="oz"
       style="display:inline"
       transform="matrix(2.0897833,0,0,2.0897833,184.1404,1005.9751)">
      <path
         style="font-size:medium;font-style:normal;font-variant:normal;font-weight:normal;font-stretch:normal;text-indent:0;text-align:start;text-decoration:none;line-height:normal;letter-spacing:normal;word-spacing:normal;text-transform:none;direction:ltr;block-progression:tb;writing-mode:lr-tb;text-anchor:start;baseline-shift:baseline;color:#000000;fill:#000000;fill-opacity:1;fill-rule:nonzero;stroke:#ffff00;stroke-width:0.5;stroke-miterlimit:4;stroke-dasharray:none;marker:none;visibility:visible;display:inline;overflow:visible;enable-background:accumulate;font-family:Sans;-inkscape-font-specification:Sans"
         d="m 4.9375,1.46875 0,5.8125 c 0.431118,-0.1796265 0.837283,-0.3543623 1.25,-0.5 l 0,11.4375 0,1 2,0 0,-1 0,-11.84375 0,-0.15625 C 12.96298,5.085594 16.408629,6.4139764 19,9.3125 18.059857,4.5429806 14.44279,1.3068211 4.9375,1.46875 z"
         id="path10167"
         inkscape:connector-curvature="0" />
    </g>
    <g
       id="layer5-8"
       inkscape:label="cantimplora"
       transform="matrix(1.8820538,0,0,1.8820538,49.134879,1012.0831)">
      <g
         inkscape:label="cantimplora"
         id="layer1-0"
         transform="translate(0.15101242,-1032.4185)"
         style="display:inline">
        <path
           sodipodi:type="arc"
           style="fill:#445016;fill-opacity:1;stroke:#1a1a1a;stroke-width:2;stroke-linecap:square;stroke-linejoin:miter;stroke-miterlimit:4;stroke-opacity:1;stroke-dasharray:none"
           id="path9474-1"
           sodipodi:cx="9.8489876"
           sodipodi:cy="12.171318"
           sodipodi:rx="6.7553949"
           sodipodi:ry="6.7553949"
           d="m 16.604383,12.171318 c 0,3.730902 -3.024494,6.755395 -6.7553954,6.755395 -3.7309016,0 -6.755395,-3.024493 -6.755395,-6.755395 0,-3.7309015 3.0244934,-6.7553949 6.755395,-6.7553949 3.7309014,0 6.7553954,3.0244934 6.7553954,6.7553949 z"
           transform="translate(0,1032.3622)" />
        <rect
           style="fill:#445016;fill-opacity:1;stroke:#1a1a1a;stroke-width:2;stroke-linecap:square;stroke-linejoin:miter;stroke-miterlimit:4;stroke-opacity:1;stroke-dasharray:none"
           id="rect9605-7"
           width="5.5558391"
           height="5.5558391"
           x="7.1342025"
           y="1033.5481" />
      </g>
    </g>
    <g
       id="layer5"
       inkscape:label="fusil"
       transform="matrix(2.0897833,0,0,2.0897833,235.89438,1005.9848)">
      <path
         style="font-size:medium;font-style:normal;font-variant:normal;font-weight:normal;font-stretch:normal;text-indent:0;text-align:start;text-decoration:none;line-height:normal;letter-spacing:normal;word-spacing:normal;text-transform:none;direction:ltr;block-progression:tb;writing-mode:lr-tb;text-anchor:start;baseline-shift:baseline;color:#000000;fill:#000000;fill-opacity:1;stroke:#ffff00;stroke-width:0.5;stroke-miterlimit:4;stroke-dasharray:none;marker:none;visibility:visible;display:inline;overflow:visible;enable-background:accumulate;font-family:Sans;-inkscape-font-specification:Sans"
         d="m 13.655572,4.0433081 0.04073,0.040728 0.325824,0.3258237 0.285095,0.2850958 0.264732,0.2647318 -7.3310328,7.3310336 -0.040728,-0.04073 -5.7833707,4.8059 2.3622218,2.362222 4.5818959,-5.559367 2.7695018,4.032068 3.421148,-3.421149 -1.99567,-1.38475 c 0.01427,-0.01351 0.02675,-0.02675 0.04072,-0.04072 0.842042,-0.842041 0.842042,-2.212555 0,-3.0545966 -0.07731,-0.07731 -0.158829,-0.1405245 -0.244367,-0.2036399 L 17.382181,4.7560475 18.033828,4.1044001 16.730534,2.8011053 16.078887,3.4527527 15.223599,4.30804 14.958867,4.0433081 17.667277,1.3348986 17.993101,1.0090749 17.341453,0.35742751 17.01563,0.68325122 13.981396,3.7174845 13.655572,4.0433081 z m -3.17678,7.6161289 1.221838,-1.221838 c 0.08931,0.05285 0.167198,0.126468 0.244368,0.20364 0.489865,0.489865 0.489865,1.261436 0,1.751302 -0.05443,0.05443 -0.102113,0.120577 -0.162911,0.162912 l -1.303295,-0.896016 z"
         id="path10181"
         inkscape:connector-curvature="0" />
    </g>
    <g
       id="layer6-7"
       inkscape:label="marraqueta"
       transform="matrix(1.8820538,0,0,1.8820538,2.0691827,1010.4227)">
      <g
         id="g4576"
         transform="matrix(0.58216417,0,0,0.58216417,-157.66328,-86.647097)">
        <path
           transform="matrix(0.70967742,0,0,0.70967742,174.09677,95.589021)"
           style="fill:#d38d5f;fill-opacity:1;stroke:#1a1a1a;stroke-width:2.42043567;stroke-miterlimit:4;stroke-dasharray:none"
           d="m 176,97.362183 c 0,12.978687 -6.93959,23.499997 -15.5,23.499997 -8.56041,0 -15.5,-10.52131 -15.5,-23.499997 0,-6.276024 1.62271,-11.977429 4.26672,-16.192397 2.82375,-4.501502 6.81237,-3.432603 11.23328,-3.432603 4.37022,0 8.31802,-1.132873 11.1357,3.278446 2.70161,4.229593 4.3643,9.993685 4.3643,16.346554 z"
           id="path13139"
           inkscape:connector-curvature="0"
           sodipodi:nodetypes="sssssss" />
        <path
           sodipodi:nodetypes="sssssss"
           inkscape:connector-curvature="0"
           id="path4526"
           d="m 176,97.362183 c 0,12.978687 -6.93959,23.499997 -15.5,23.499997 -8.56041,0 -15.5,-10.52131 -15.5,-23.499997 0,-6.276024 1.62271,-11.977429 4.26672,-16.192397 2.82375,-4.501502 6.81237,-3.432603 11.23328,-3.432603 4.37022,0 8.31802,-1.132873 11.1357,3.278446 2.70161,4.229593 4.3643,9.993685 4.3643,16.346554 z"
           style="fill:#d38d5f;fill-opacity:1;stroke:none"
           transform="matrix(0.70967742,0,0,0.70967742,174.09677,95.589021)" />
        <path
           id="path4542"
           d="m 284.625,150.6875 c -1.59425,0.0527 -3.03454,0.40813 -4.21875,1.9375 -0.0603,0.0874 -0.12854,0.16054 -0.1875,0.25 -0.0693,0.0987 -0.12006,0.20499 -0.1875,0.3125 -0.22548,0.35971 -0.45244,0.73595 -0.65625,1.125 -0.0108,0.0205 -0.0205,0.0419 -0.0312,0.0625 -0.1656,0.3191 -0.31857,0.66275 -0.46875,1 -0.12508,0.28089 -0.22988,0.58231 -0.34375,0.875 -0.0661,0.16988 -0.15656,0.32633 -0.21875,0.5 -0.0259,0.0724 -0.0373,0.14575 -0.0625,0.21875 -0.13993,0.40481 -0.25691,0.79525 -0.375,1.21875 -0.11347,0.40693 -0.22023,0.82733 -0.3125,1.25 -0.0271,0.12428 -0.0373,0.24945 -0.0625,0.375 -0.0187,0.093 -0.0448,0.18755 -0.0625,0.28125 -0.0827,0.43875 -0.15969,0.89102 -0.21875,1.34375 -0.0654,0.50367 -0.12151,1.01248 -0.15625,1.53125 -10e-4,0.0211 0.001,0.0414 0,0.0625 -0.0349,0.54093 -0.0625,1.10149 -0.0625,1.65625 0,0.57567 0.0249,1.12685 0.0625,1.6875 6.7e-4,0.0102 -6.8e-4,0.0211 0,0.0312 0.0375,0.54986 0.0844,1.09232 0.15625,1.625 0.29181,2.18346 0.86184,4.18478 1.65625,5.96875 0.19768,0.44362 0.40083,0.86942 0.625,1.28125 0.004,0.008 -0.004,0.0232 0,0.0312 0.22034,0.40328 0.47472,0.78626 0.71875,1.15625 0.25315,0.38555 0.50438,0.74701 0.78125,1.09375 0.27164,0.33988 0.55115,0.63779 0.84375,0.9375 0.5852,0.59941 1.21699,1.14054 1.875,1.5625 1.31602,0.84487 2.76247,1.3125 4.28125,1.3125 0.66171,0 1.30791,-0.11008 1.9375,-0.28125 0.0513,-0.0138 0.10521,-0.0163 0.15625,-0.0312 C 286.62873,179.59008 284,172.8216 284,164.6875 c 0,-5.85806 1.38017,-10.99546 3.4375,-13.96875 -0.9705,-0.0237 -1.92451,-0.0606 -2.8125,-0.0312 z"
           style="fill:#c87137;fill-opacity:1;stroke:none"
           inkscape:connector-curvature="0" />
        <path
           id="path4568"
           d="m 291.34375,150.65625 c -1.05224,-0.0238 -2.18071,0.0937 -3.34375,0.0937 -3.13742,0 -5.9648,-0.75711 -7.96875,2.4375 2.27431,0.97042 5.01748,1.5625 7.96875,1.5625 2.95127,0 5.69444,-0.59208 7.96875,-1.5625 -0.0199,-0.0316 -0.0424,-0.0624 -0.0625,-0.0937 -1.24978,-1.95663 -2.80876,-2.39789 -4.5625,-2.4375 z"
           style="fill:#deaa87;fill-opacity:1;stroke:#1a1a1a;stroke-width:0.34354571;stroke-miterlimit:4;stroke-dasharray:none"
           inkscape:connector-curvature="0" />
        <path
           sodipodi:nodetypes="csccscc"
           inkscape:connector-curvature="0"
           id="path4549"
           d="m 284.03125,154.375 c -1.01496,2.91691 -1.625,6.45721 -1.625,10.3125 0,7.62158 2.32737,14.09166 5.59375,16.6875 1.08292,0 2.13656,-0.24541 3.125,-0.6875 -1.973,-2.95407 -3.34375,-8.9974 -3.34375,-16 0,-3.70345 0.38213,-7.11972 1.03125,-9.96875 -1.59874,-1.17529 -3.36352,-0.79695 -4.78125,-0.34375 z"
           style="fill:#a05a2c;fill-opacity:1;stroke:none" />
      </g>
    </g>
  </g>
</svg>
