<?xml version="1.0" encoding="UTF-8" standalone="no"?>
<!-- Created with Inkscape (http://www.inkscape.org/) -->

<svg
   xmlns:dc="http://purl.org/dc/elements/1.1/"
   xmlns:cc="http://creativecommons.org/ns#"
   xmlns:rdf="http://www.w3.org/1999/02/22-rdf-syntax-ns#"
   xmlns:svg="http://www.w3.org/2000/svg"
   xmlns="http://www.w3.org/2000/svg"
   xmlns:sodipodi="http://sodipodi.sourceforge.net/DTD/sodipodi-0.dtd"
   xmlns:inkscape="http://www.inkscape.org/namespaces/inkscape"
   width="50"
   height="70"
   id="svg3823"
   version="1.1"
   inkscape:version="0.48.5 r10040"
   sodipodi:docname="ladislao-cabrera.svg"
   inkscape:export-filename="/home/vg/Project/litoral/prototype/assets/ladislao-cabrera.png"
   inkscape:export-xdpi="90.055107"
   inkscape:export-ydpi="90.055107">
  <defs
     id="defs3825" />
  <sodipodi:namedview
     id="base"
     pagecolor="#ffffff"
     bordercolor="#666666"
     borderopacity="1.0"
     inkscape:pageopacity="0.0"
     inkscape:pageshadow="2"
     inkscape:zoom="1"
     inkscape:cx="22.015625"
     inkscape:cy="33.737515"
     inkscape:document-units="px"
     inkscape:current-layer="layer1"
     showgrid="false"
     inkscape:window-width="1366"
     inkscape:window-height="715"
     inkscape:window-x="0"
     inkscape:window-y="0"
     inkscape:window-maximized="1"
     showguides="true"
     inkscape:guide-bbox="true" />
  <metadata
     id="metadata3828">
    <rdf:RDF>
      <cc:Work
         rdf:about="">
        <dc:format>image/svg+xml</dc:format>
        <dc:type
           rdf:resource="http://purl.org/dc/dcmitype/StillImage" />
        <dc:title></dc:title>
      </cc:Work>
    </rdf:RDF>
  </metadata>
  <g
     inkscape:groupmode="layer"
     id="layer4"
     inkscape:label="pants"
     sodipodi:insensitive="true"
     style="display:none">
    <path
       sodipodi:nodetypes="ccccccc"
       inkscape:connector-curvature="0"
       id="path4431-3"
       d="m 27.03125,42.75002 8.0625,8.625 c 2.608018,2.847 0.98376,4.532 1.28125,8.2187 -2.815057,-0.1491 -4.986987,3.3124 -10.21875,2.4063 0.449425,-4.5727 1.39674,-7.2694 0.943037,-9.2031 -5.662896,-1.6929 -5.83859,-5.3811 -8.224287,-8.2657 z"
       style="fill:#445016;fill-opacity:1;stroke:#1a1a1a;stroke-width:1"
       inkscape:transform-center-x="-5"
       inkscape:transform-center-y="7.5" />
    <path
       style="fill:#445016;fill-opacity:1;stroke:#1a1a1a;stroke-width:1;stroke-linecap:round;stroke-linejoin:round;stroke-miterlimit:4;stroke-opacity:1;stroke-dasharray:none"
       d="m 24.981416,48.66072 c 1.948414,0.09 1.568286,-1.7744 1.826757,-2.8742 0.258471,-1.0997 0.339426,-1.8809 0.420379,-2.662 l 0.303587,-2.9294 c -4.689346,-2.1854 -7.591759,-2.001 -11.607555,0.1478 -3.06917,1.6423 -2.360441,5.371 -1.374016,6.6063 1.33925,1.6772 2.478513,1.3451 4.426957,1.4349 z"
       id="path3887-8"
       inkscape:connector-curvature="0"
       sodipodi:nodetypes="scccssss" />
    <path
       style="fill:#445016;fill-opacity:1;stroke:#1a1a1a;stroke-width:1"
       d="m 14.09375,45.00002 -2.3125,10.5 c -2.8311625,3.0906 -4.4396705,2.4459 -7.65625,9.4687 2.8150574,-0.1491 5.6119874,-1.1876 10.09375,-0.8437 -0.02029,-4.4955 3.753449,-7.0531 5.8125,-8.5781 L 22.25,46.78122 z"
       id="rect4426-9"
       inkscape:connector-curvature="0"
       sodipodi:nodetypes="ccccccc" />
  </g>
  <g
     inkscape:label="Layer 1"
     inkscape:groupmode="layer"
     id="layer1"
     transform="translate(0,-982.36218)">
    <path
       sodipodi:nodetypes="ccccccccsc"
       inkscape:connector-curvature="0"
       id="path8259"
       d="m 18.359416,1010.0853 c -0.225335,0.897 -2.885692,1.8639 -3.737101,4.3206 1.187042,3.489 4.830884,7.1569 4.694577,7.8603 -0.258471,1.3339 -0.339426,1.4433 -0.420379,3.4241 l -9.290138,9.0336 c 3.420201,6.3706 22.506844,6.5307 19.808203,-1.7768 l -6.379324,-17.2936 c 0.08094,-1.9807 0.161894,-1.8425 0.13293,-3.1945 -0.02896,-1.3518 -2.634812,-6.8645 -3.489456,-5.099 z"
       style="fill:#253a4a;fill-opacity:1;stroke:#1a1a1a;stroke-width:1;stroke-linecap:round;stroke-linejoin:round;stroke-miterlimit:4;stroke-opacity:1;stroke-dasharray:none" />
    <path
       sodipodi:nodetypes="cccc"
       inkscape:connector-curvature="0"
       id="path8257"
       d="m 20.756377,1003.8347 -6.449795,10.2974 c 2.841275,-2.4138 7.730652,-6.2519 9.707731,-6.0281 z"
       style="fill:#253a4a;fill-opacity:1;stroke:#1a1a1a;stroke-width:1;stroke-linecap:square;stroke-linejoin:miter" />
    <g
       id="g4484"
       transform="matrix(0.73648154,0.67645764,-0.67645764,0.73648154,688.84304,249.86582)"
       inkscape:transform-center-x="1.6845164"
       inkscape:transform-center-y="11.018286">
      <path
         sodipodi:type="arc"
         style="fill:#d69061;fill-opacity:1;stroke:#1a1a1a;stroke-width:1;stroke-linecap:square;stroke-linejoin:miter;stroke-miterlimit:4;stroke-opacity:1;stroke-dasharray:none"
         id="path4480"
         sodipodi:cx="9.8994951"
         sodipodi:cy="47.726135"
         sodipodi:rx="4.0658641"
         sodipodi:ry="4.0658641"
         d="m 13.965359,47.726135 a 4.0658641,4.0658641 0 1 1 -8.131728,0 4.0658641,4.0658641 0 1 1 8.131728,0 z"
         transform="matrix(-1,0,0,1,40.44823,979.7105)" />
      <path
         style="fill:#445016;fill-opacity:1;stroke:#1a1a1a;stroke-width:1;stroke-linecap:square;stroke-linejoin:miter;stroke-miterlimit:4;stroke-opacity:1"
         d="m 22.195932,1009.2678 -1.727968,2.9069 c 2.572092,-0.7461 10.991368,4.8026 7.95228,12.3468 2.458083,-0.2812 5.498565,4.6606 6.301821,-1.0462 0.85333,-6.0626 -3.381299,-13.1218 -12.526133,-14.2075 z"
         id="path4482"
         inkscape:connector-curvature="0"
         sodipodi:nodetypes="cccsc"
         inkscape:transform-center-x="-4.476204"
         inkscape:transform-center-y="6.8258431" />
    </g>
    <path
       sodipodi:nodetypes="ssccsss"
       inkscape:connector-curvature="0"
       id="path4466"
       d="m 13.21875,1045.2059 c 2.319875,0 4.1875,-0.2573 4.1875,4.1875 l 0,1.8125 -12.90625,0 0,-1.8125 c 0,-2.3198 1.867625,-4.1875 4.1875,-4.1875 z"
       style="fill:#1a1a1a;fill-opacity:1;stroke:#1a1a1a;stroke-width:1;stroke-linecap:square;stroke-linejoin:miter;stroke-miterlimit:4;stroke-opacity:1;stroke-dasharray:none" />
    <path
       style="fill:#1a1a1a;fill-opacity:1;stroke:#1a1a1a;stroke-width:1;stroke-linecap:square;stroke-linejoin:miter;stroke-miterlimit:4;stroke-opacity:1;stroke-dasharray:none"
       d="m 34.411547,1045.3934 c 2.005315,0 3.619703,-0.2573 3.619703,4.1875 l 0,1.8125 -11.15625,0 0,-1.8125 c 0,-2.3198 1.614388,-4.1875 3.619703,-4.1875 z"
       id="rect4460"
       inkscape:connector-curvature="0"
       sodipodi:nodetypes="ssccsss" />
    <path
       sodipodi:nodetypes="ccccccc"
       inkscape:connector-curvature="0"
       id="path4431"
       d="m 17,1025.1122 -6.057029,11.8838 c -2.066617,2.847 -0.779541,4.532 -1.015274,8.2187 2.230676,-0.1491 3.951733,3.3124 8.097429,2.4063 -0.356128,-4.5727 -0.04429,-7.2694 0.315229,-9.2031 4.48733,-1.6929 4.430198,-8.6399 6.815895,-11.5245 z"
       style="fill:#563c29;fill-opacity:1;stroke:#1a1a1a;stroke-width:1"
       inkscape:transform-center-x="5"
       inkscape:transform-center-y="7.5" />
    <path
       style="fill:#563c29;fill-opacity:1;stroke:#1a1a1a;stroke-width:1;stroke-linecap:round;stroke-linejoin:round;stroke-miterlimit:4;stroke-opacity:1;stroke-dasharray:none"
       d="m 22.5625,1021.0184 c 1.813746,0.042 3.523352,0.6131 5.53125,1.6875 2.349176,1.2571 2.75786,3.6645 2.625,5.375 L 33,1037.4247 c 2.831162,3.0906 3.31467,4.2584 6.53125,11.2812 -3.743135,0.4255 -7.020458,-5.4996 -11.28125,-2.2831 0.02029,-4.4955 -2.190949,-6.9731 -4.25,-8.4981 l -3.03125,-6.8125 c -2.373794,-1.582 -3.034472,-3.4574 -4.15625,-5.625 L 16.5,1022.5497 c 2.344673,-1.0927 4.248754,-1.5728 6.0625,-1.5313 z"
       id="path3887"
       inkscape:connector-curvature="0"
       sodipodi:nodetypes="ssccccccccs" />
    <path
       sodipodi:nodetypes="scccccccss"
       inkscape:connector-curvature="0"
       id="path3885"
       d="m 21.171154,1009.4716 c -1.927052,0.3657 -3.689606,1.0801 -4.092578,2.7999 l -0.03302,5e-4 c -0.344283,0.6841 -1.23062,3.3631 -0.617858,6.0376 l -1.696323,7.9143 c 2.420296,4.6708 15.652229,-0.01 15.183203,-4.5268 l -1.504324,-4.6686 c 0.08094,-1.9807 0.161894,-1.8425 0.13293,-3.1945 -0.02896,-1.3518 -1.562404,-5.4647 -3.489456,-5.099 z"
       style="fill:#b3b3b3;fill-opacity:1;stroke:#1a1a1a;stroke-width:1;stroke-linecap:round;stroke-linejoin:round;stroke-miterlimit:4;stroke-opacity:1;stroke-dasharray:none" />
    <path
       style="fill:#253a4a;fill-opacity:1;stroke:#1a1a1a;stroke-width:1;stroke-linecap:round;stroke-linejoin:round;stroke-miterlimit:4;stroke-opacity:1;stroke-dasharray:none"
       d="m 23.734416,1011.4603 c -0.225335,0.897 -2.885692,1.8639 -3.737101,4.3206 1.187042,3.489 4.830884,7.1569 4.694577,7.8603 -0.258471,1.3339 -0.339426,1.4433 -0.420379,3.4241 l -2.540138,5.2836 c 2.420296,4.6708 14.902229,10.1154 14.433203,5.5982 l -7.754324,-20.9186 c 0.08094,-1.9807 0.161894,-1.8425 0.13293,-3.1945 -0.02896,-1.3518 -2.634812,-6.8645 -3.489456,-5.099 z"
       id="path8255"
       inkscape:connector-curvature="0"
       sodipodi:nodetypes="ccccccccsc" />
    <path
       style="fill:#d69061;fill-opacity:1;stroke:#1a1a1a;stroke-width:1"
       d="m 22.149224,989.44222 c 4.51777,0 8.167499,5.1406 8.167499,9.65996 0,2.73722 -1.35859,5.13752 -3.421956,6.62302 -0.339498,0.2444 -1.044004,0.4553 -1.936956,0.6461 0.02444,0.2713 0.06456,0.5554 0.06456,0.84 0,1.196 2.396711,3.2272 2.002626,3.9939 -0.499556,0.972 -3.962111,0.4194 -4.585234,0.9169 -4.452329,3.5546 -5.923093,0.8847 -3.781677,-1.4083 0.360359,-0.3859 0.953628,-0.7352 1.099294,-1.165 0.251523,-0.742 0.355987,-2.5016 0.355987,-2.5016 0,0 -2.803143,0.2288 -3.387625,0.2288 -3.248841,0 -2.553675,-1.6511 -3.873912,-4.3961 -0.803858,-0.336 -1.222867,-0.868 -1.222867,-1.7101 0,-1.1206 1.257771,-1.32392 1.852758,-2.29381 -0.854242,-4.68147 0.311977,-9.43377 8.667503,-9.43377 z"
       id="path3877"
       inkscape:connector-curvature="0"
       sodipodi:nodetypes="ssccssssscscscs" />
    <path
       style="fill:#1a1a1a;fill-opacity:1;stroke:none"
       d="m 15.317336,998.66857 c 0,1.42463 -0.240824,2.57953 2.61997,2.57953 1.446969,0 2.61997,-1.1549 2.61997,-2.57953 0,-1.32834 -0.249982,-2.57963 -2.61997,-2.57963 -2.032,0 -2.61997,1.15491 -2.61997,2.57963 z"
       id="path3838"
       inkscape:connector-curvature="0"
       sodipodi:nodetypes="sssss" />
    <path
       inkscape:connector-curvature="0"
       style="fill:#f9f9f9;fill-opacity:1;stroke:none"
       d="m 15.512521,998.66857 c 0,1.13295 0.879292,2.05143 2.382328,2.05143 1.503033,0 2.721486,-0.91848 2.721486,-2.05143 0,-1.13312 -1.218453,-2.05164 -2.721486,-2.05164 -1.503036,0 -2.382328,0.91852 -2.382328,2.05164 z"
       id="path3843"
       sodipodi:nodetypes="sssss" />
    <path
       id="path3841"
       d="m 15.408564,998.47653 c 0,1.15956 0.563487,2.09957 1.258584,2.09957 0.695094,0 1.258582,-0.94001 1.258582,-2.09957 0,-1.15962 -0.563488,-2.09954 -1.258582,-2.09954 -0.695097,0 -1.258584,0.93992 -1.258584,2.09954 z"
       style="fill:#1a1a1a;fill-opacity:1;stroke:none"
       inkscape:connector-curvature="0" />
    <path
       style="fill:#1a1a1a;fill-opacity:1;stroke:none"
       d="m 18.130884,996.02441 c 1.772143,0 3.113742,-0.22653 3.113742,0.60469 0,0.0963 0.061,0.53759 0.02414,0.62887 -0.262748,-0.70723 -1.554897,-0.35982 -3.137879,-0.35982 -1.550625,0 -3.398548,0.3767 -3.556895,0.73965 -0.01373,-0.0408 -0.02554,-0.0854 -0.02554,-0.128 0,-0.4399 1.810303,-1.48539 3.582443,-1.48539 z"
       id="path3892"
       inkscape:connector-curvature="0"
       sodipodi:nodetypes="sscscss" />
    <path
       style="fill:#1a1a1a;fill-opacity:1;stroke:none"
       d="m 15.006047,1003.983 c 0.976246,0 1.928147,0.2674 1.928147,1.1053 -0.290641,0.5668 -1.264781,-0.1935 -1.928144,-0.239 -0.803094,0 -1.483861,-0.4902 -1.699107,0.1392 -0.04641,-0.1357 -0.07812,-0.2639 -0.07812,-0.4126 0,-0.8379 0.80098,-0.5929 1.77722,-0.5929 z"
       id="path3897"
       inkscape:connector-curvature="0"
       sodipodi:nodetypes="scccss" />
    <path
       sodipodi:type="arc"
       style="fill:#d69061;fill-opacity:1;stroke:#1a1a1a;stroke-width:1;stroke-linecap:square;stroke-linejoin:miter;stroke-miterlimit:4;stroke-opacity:1;stroke-dasharray:none"
       id="path4473"
       sodipodi:cx="9.8994951"
       sodipodi:cy="47.726135"
       sodipodi:rx="4.0658641"
       sodipodi:ry="4.0658641"
       d="m 13.965359,47.726135 a 4.0658641,4.0658641 0 1 1 -8.131728,0 4.0658641,4.0658641 0 1 1 8.131728,0 z"
       transform="matrix(-1,0,0,1,44.56158,979.71053)" />
    <path
       style="fill:#253a4a;fill-opacity:1;stroke:#1a1a1a;stroke-width:1;stroke-linecap:square;stroke-linejoin:miter;stroke-miterlimit:4;stroke-opacity:1"
       d="m 26.309283,1009.2678 -1.727968,2.9069 c 2.572092,-0.7461 10.991368,4.8026 7.952279,12.3468 2.458083,-0.2812 5.498565,4.6606 6.301822,-1.0462 0.85333,-6.0626 -3.3813,-13.1218 -12.526133,-14.2075 z"
       id="rect4468"
       inkscape:connector-curvature="0"
       sodipodi:nodetypes="cccsc"
       inkscape:transform-center-x="-4.4762051"
       inkscape:transform-center-y="6.8258145" />
    <path
       style="fill:#253a4a;fill-opacity:1;stroke:#1a1a1a;stroke-width:1;stroke-linecap:square;stroke-linejoin:miter"
       d="m 26.006377,1005.0847 -6.449795,10.2974 c 2.841275,-2.4138 7.730652,-6.2519 9.707731,-6.0281 z"
       id="path3910"
       inkscape:connector-curvature="0"
       sodipodi:nodetypes="cccc" />
    <path
       sodipodi:type="arc"
       style="fill:#a2bf33;fill-opacity:1;stroke:#1a1a1a"
       id="path4422"
       sodipodi:cx="25.125"
       sodipodi:cy="35"
       sodipodi:rx="1.25"
       sodipodi:ry="1.25"
       d="m 26.375,35 a 1.25,1.25 0 1 1 -2.5,0 1.25,1.25 0 1 1 2.5,0 z"
       transform="matrix(-1,0,0,1,51.15625,985.98718)" />
    <path
       transform="matrix(-1,0,0,1,48.65625,982.48718)"
       d="m 26.375,35 a 1.25,1.25 0 1 1 -2.5,0 1.25,1.25 0 1 1 2.5,0 z"
       sodipodi:ry="1.25"
       sodipodi:rx="1.25"
       sodipodi:cy="35"
       sodipodi:cx="25.125"
       id="path4424"
       style="fill:#a2bf33;fill-opacity:1;stroke:#1a1a1a"
       sodipodi:type="arc" />
    <g
       id="g7973"
       style="fill:#1a1a1a;stroke:#333333;stroke-width:0.2;stroke-miterlimit:4;stroke-dasharray:none"
       transform="matrix(-1,0,0,1,44.03125,0)">
      <path
         style="fill:#1a1a1a;fill-opacity:1;stroke:#333333;stroke-width:0.2;stroke-miterlimit:4;stroke-dasharray:none"
         d="m 21.125,3.09375 c -0.268485,0 -0.517358,0.057851 -0.75,0.15625 C 20.258679,3.2992 20.1347,3.3676103 20.03125,3.4375 19.766955,3.6160539 19.5563,3.8416405 19.40625,4.125 19.37518,4.11701 19.34415,4.100226 19.3125,4.09375 19.185915,4.067847 19.040493,4.0625 18.90625,4.0625 c -0.428544,0 -0.83486,0.1401427 -1.15625,0.375 -0.02381,-0.041554 -0.03578,-0.085445 -0.0625,-0.125 -0.349449,-0.517252 -0.922536,-0.875 -1.59375,-0.875 -0.671214,0 -1.275551,0.357748 -1.625,0.875 C 14.42867,4.371832 14.40846,4.4362517 14.375,4.5 14.34066,4.49097 14.3163,4.475923 14.28125,4.46875 14.154665,4.442847 14.009243,4.40625 13.875,4.40625 c -1.073942,0 -1.9375,0.8948082 -1.9375,1.96875 0,0.1120232 0.01306,0.205659 0.03125,0.3125 C 11.892393,6.6786805 11.827032,6.6582105 11.75,6.65625 11.25541,6.6436622 10.729499,6.7760037 10.28125,7.0625 9.435979,7.60271 10.058516,9.39871 9.125,9.5 6.2347119,9.81359 6.4389591,12.59056 9.03125,13 8.6347575,12.848237 8.2685011,12.314943 8.125,11.8125 c -0.2391685,-0.837404 0.1698749,-1.577313 2.21875,-0.375 0.127117,0.0746 0.269761,0.103475 0.40625,0.15625 -0.567815,0.339538 -0.9375,0.946559 -0.9375,1.65625 0,0.520449 0.198268,0.994754 0.53125,1.34375 -0.4840214,0.353701 -0.8125,0.917102 -0.8125,1.5625 0,1.073942 0.894808,1.96875 1.96875,1.96875 0.03265,0 0.06149,0.0016 0.09375,0 0.124692,0.423003 0.367737,0.781828 0.71875,1.03125 -0.246775,0.32599 -0.375,0.715868 -0.375,1.15625 0,1.073942 0.863558,1.96875 1.9375,1.96875 0.134243,0 0.279665,-0.0366 0.40625,-0.0625 0.424278,-0.08682 0.78796,-0.310896 1.0625,-0.625 0.127819,0.166525 0.263226,0.319763 0.4375,0.4375 0.0029,0.0051 0.02831,-0.005 0.03125,0 0.01131,0.0074 0.01978,0.02406 0.03125,0.03125 0.07545,0.125782 0.139307,0.280575 0.21875,0.375 -0.05708,-0.133959 -0.06116,-0.212831 -0.09375,-0.3125 0.272775,0.145788 0.575346,0.21875 0.90625,0.21875 0.134243,0 0.279665,-0.0053 0.40625,-0.03125 0.886096,-0.181321 1.53125,-0.966551 1.53125,-1.90625 0,-1.053411 -0.829455,-1.905088 -1.875,-1.9375 -2.550168,-4.163921 0.342838,-3.95689 1.53125,-2.5625 -0.0014,0.03045 0,0.06295 0,0.09375 0,0.576613 0.257582,1.081401 0.65625,1.4375 0.09307,0.342127 0.190945,0.696809 0.28125,1.09375 0.02198,-0.0025 0.04063,0.0028 0.0625,0 0.243492,0.700848 0.414793,2.09802 1.0625,2.8125 0.0998,0.110091 0.20382,0.214256 0.3125,0.3125 -0.319868,0.252146 -0.673072,0.465998 -0.96875,0.625 -0.193192,0.10389 -0.355591,0.195209 -0.5,0.21875 -0.288818,0.04708 -0.463681,-0.09573 -0.375,-0.5625 -0.337788,1.273875 0.02671,1.334606 0.625,1.1875 0.119658,-0.02942 0.272779,-0.087 0.40625,-0.125 0.266941,-0.07601 0.537566,-0.142425 0.8125,-0.15625 -0.52485,1.0232 -1.987319,1.0663 -3.5,0.625 1.49205,1.306 3.152727,2.3408 3.9375,0.875 -0.138352,0.996 -1.131808,2.16945 -2.03125,1.34375 0.432789,2.1267 3.556829,0.81765 4.28125,0.28125 0.72442,-0.5364 0.781289,2.19915 -0.5625,3.09375 0.24361,0.01973 0.477191,-0.04334 0.6875,-0.1875 0.105154,-0.07208 0.215942,-0.145333 0.3125,-0.25 1.255248,-1.360669 1.755544,-5.247556 1.34375,-5.5 0.0047,-0.01 0.02699,-0.02225 0.03125,-0.03125 0.296375,-0.187597 0.485319,-0.42322 0.59375,-0.65625 0.821674,-0.391859 2.081701,-1.049813 3.636367,-1.222416 0.618692,-0.06869 1.581607,0.646195 2.128016,0.406791 0.04182,-0.01835 -0.136279,-0.333474 -0.303858,-0.629247 -0.08379,-0.147889 -0.149017,-0.275733 -0.207141,-0.390391 -0.05812,-0.114659 -0.318837,-0.427089 -0.295357,-0.426111 -0.79903,0.378314 -1.640964,0.636071 -2.079629,-0.118985 -0.95455,0.06636 -1.512513,0.536091 -2.628398,0.817859 -0.212568,0.05367 -0.444631,0.124677 -0.65625,0.15625 -0.06333,0.0094 -0.124382,-0.0069 -0.1875,0 0.01317,-0.142312 -0.0046,-0.289613 -0.03125,-0.4375 C 25.210399,20.02785 24.864169,19.591 24.375,19.375 24.081551,19.2452 23.745609,19.1891 23.40625,19.25 c -0.151771,0.0274 -0.347053,0.07698 -0.53125,0.15625 -0.162466,0.06992 -0.298381,0.189351 -0.4375,0.28125 -0.129848,-0.181789 -0.253229,-0.365887 -0.375,-0.59375 -0.0925,-0.173087 -0.162635,-0.39198 -0.25,-0.59375 0.12246,-0.153736 0.21875,-0.350675 0.21875,-0.5625 0,-0.224623 -0.113919,-0.404821 -0.25,-0.5625 C 22.133143,17.023107 22.375,16.536971 22.375,16 c 0,-0.528639 -0.251438,-0.993235 -0.59375,-1.34375 -0.0301,-0.181857 -0.08063,-0.34906 -0.125,-0.53125 0.580345,-0.336447 0.96875,-0.937154 0.96875,-1.65625 0,-1.073942 -0.863558,-1.96875 -1.9375,-1.96875 -0.134243,0 -0.279665,0.0366 -0.40625,0.0625 -0.05648,0.01156 -0.101673,0.01491 -0.15625,0.03125 -0.336677,-0.528859 -0.655448,-0.9123133 -0.78125,-1 -0.131893,-0.091934 -0.178044,-0.176054 -0.125,-0.25 0.01768,-0.024649 0.05792,-0.039996 0.09375,-0.0625 0.291606,-0.1831332 1.181413,-0.2935318 2.3125,-0.3125 0.01476,0.0942 0.0033,0.1916394 0.03125,0.28125 0.03761,0.120567 0.09679,0.2339734 0.15625,0.34375 0.297307,0.548883 0.86324,0.934506 1.53125,1 0.133602,0.0131 0.246491,0.01343 0.375,0 0.233252,-0.02437 0.452986,-0.08659 0.65625,-0.1875 0.02281,0.178413 0.0457,0.348335 0.125,0.5 0.03526,0.06744 0.07399,0.125965 0.125,0.1875 0.05101,0.06153 0.117916,0.132243 0.1875,0.1875 1.654475,1.31381 -0.990918,1.32737 -1.40625,0.9375 1.357615,1.8842 3.20096,0.63512 2.96875,-0.21875 -0.02362,-0.08685 -0.0063,-0.183044 0.03125,-0.28125 0.03754,-0.09821 0.105429,-0.205857 0.1875,-0.3125 0.179402,-0.233117 0.421909,-0.49875 0.6875,-0.75 0.453889,0.444016 0.96592,0.81313 0.53125,0.875 -0.931768,0.13262 0.07892,2.375 1.3125,2.375 -0.49286,0.03493 -1.05438,-1.323908 -0.40625,-2 0.08645,0.119544 0.171768,0.206169 0.28125,0.3125 0.719582,0.69893 2.34367,-0.29169 2.65625,0.59375 0.967788,2.74144 3.601948,1.89837 3.40625,-0.71875 C 34.910944,13.21568 32.129002,14.81938 33.25,11.1875 33.530531,10.27862 33.322019,9.23856 32.59375,8.53125 32.296084,8.2421401 31.933106,8.0538734 31.5625,7.9375 31.511766,6.9087992 30.666288,6.09375 29.625,6.09375 c -0.234925,0 -0.47902,0.048665 -0.6875,0.125 C 28.756179,5.3326542 27.970949,4.6875 27.03125,4.6875 c -0.177872,0 -0.336316,0.017767 -0.5,0.0625 C 26.50652,4.6488542 26.47736,4.5629955 26.4375,4.46875 26.142302,3.770824 25.461706,3.28125 24.65625,3.28125 c -0.671214,0 -1.244301,0.326498 -1.59375,0.84375 -0.04986,0.073799 -0.08548,0.169461 -0.125,0.25 C 22.92659,4.345217 22.91855,4.31033 22.90625,4.28125 22.611052,3.583324 21.930456,3.09375 21.125,3.09375 z"
         transform="translate(0,982.36218)"
         id="path3902"
         inkscape:connector-curvature="0"
         sodipodi:nodetypes="ssscsscssscssscscscsccscssccsssccccccsssccscccscsscssccccscsscccscssccssccccscscscsccssscssscsssscssscssscscccscsccscscssscss" />
    </g>
  </g>
</svg>
