<?xml version="1.0" encoding="UTF-8" standalone="no"?>
<!-- Created with Inkscape (http://www.inkscape.org/) -->

<svg
   xmlns:dc="http://purl.org/dc/elements/1.1/"
   xmlns:cc="http://creativecommons.org/ns#"
   xmlns:rdf="http://www.w3.org/1999/02/22-rdf-syntax-ns#"
   xmlns:svg="http://www.w3.org/2000/svg"
   xmlns="http://www.w3.org/2000/svg"
   xmlns:sodipodi="http://sodipodi.sourceforge.net/DTD/sodipodi-0.dtd"
   xmlns:inkscape="http://www.inkscape.org/namespaces/inkscape"
   width="50"
   height="70"
   id="svg3823"
   version="1.1"
   inkscape:version="0.48.5 r10040"
   sodipodi:docname="omar-quispe.svg"
   inkscape:export-filename="/home/vg/Project/litoral/prototype/assets/omar-quispe.png"
   inkscape:export-xdpi="90.055107"
   inkscape:export-ydpi="90.055107">
  <defs
     id="defs3825" />
  <sodipodi:namedview
     id="base"
     pagecolor="#ffffff"
     bordercolor="#666666"
     borderopacity="1.0"
     inkscape:pageopacity="0.0"
     inkscape:pageshadow="2"
     inkscape:zoom="1"
     inkscape:cx="-44.279473"
     inkscape:cy="-4.9468652"
     inkscape:document-units="px"
     inkscape:current-layer="layer4"
     showgrid="false"
     inkscape:window-width="1366"
     inkscape:window-height="715"
     inkscape:window-x="0"
     inkscape:window-y="0"
     inkscape:window-maximized="1"
     showguides="true"
     inkscape:guide-bbox="true" />
  <metadata
     id="metadata3828">
    <rdf:RDF>
      <cc:Work
         rdf:about="">
        <dc:format>image/svg+xml</dc:format>
        <dc:type
           rdf:resource="http://purl.org/dc/dcmitype/StillImage" />
        <dc:title></dc:title>
      </cc:Work>
    </rdf:RDF>
  </metadata>
  <g
     inkscape:groupmode="layer"
     id="layer4"
     inkscape:label="pants"
     sodipodi:insensitive="true"
     style="display:inline">
    <path
       sodipodi:nodetypes="ccccccc"
       inkscape:connector-curvature="0"
       id="path4431-3"
       d="m 27.03125,42.75002 8.0625,8.625 c 2.608018,2.847 0.98376,4.532 1.28125,8.2187 -2.815057,-0.1491 -4.986987,3.3124 -10.21875,2.4063 0.449425,-4.5727 1.39674,-7.2694 0.943037,-9.2031 -5.662896,-1.6929 -5.83859,-5.3811 -8.224287,-8.2657 z"
       style="fill:#445016;fill-opacity:1;stroke:#1a1a1a;stroke-width:1"
       inkscape:transform-center-x="-5"
       inkscape:transform-center-y="7.5" />
    <path
       style="fill:#445016;fill-opacity:1;stroke:#1a1a1a;stroke-width:1;stroke-linecap:round;stroke-linejoin:round;stroke-miterlimit:4;stroke-opacity:1;stroke-dasharray:none"
       d="m 24.981416,48.66072 c 1.948414,0.09 1.568286,-1.7744 1.826757,-2.8742 0.258471,-1.0997 0.339426,-1.8809 0.420379,-2.662 l 0.303587,-2.9294 c -4.689346,-2.1854 -7.591759,-2.001 -11.607555,0.1478 -3.06917,1.6423 -2.360441,5.371 -1.374016,6.6063 1.33925,1.6772 2.478513,1.3451 4.426957,1.4349 z"
       id="path3887-8"
       inkscape:connector-curvature="0"
       sodipodi:nodetypes="scccssss" />
    <path
       style="fill:#445016;fill-opacity:1;stroke:#1a1a1a;stroke-width:1"
       d="m 14.09375,45.00002 -2.3125,10.5 c -2.8311625,3.0906 -4.4396705,2.4459 -7.65625,9.4687 2.8150574,-0.1491 5.6119874,-1.1876 10.09375,-0.8437 -0.02029,-4.4955 3.753449,-7.0531 5.8125,-8.5781 L 22.25,46.78122 z"
       id="rect4426-9"
       inkscape:connector-curvature="0"
       sodipodi:nodetypes="ccccccc" />
  </g>
  <g
     inkscape:label="Layer 1"
     inkscape:groupmode="layer"
     id="layer1"
     transform="translate(0,-982.36218)"
     style="display:inline">
    <g
       id="g4484"
       transform="matrix(-0.72507995,0.66612938,0.66598529,0.72523682,-630.1635,262.10367)"
       inkscape:transform-center-x="-1.6584373"
       inkscape:transform-center-y="10.850053">
      <path
         sodipodi:type="arc"
         style="fill:#9e6947;fill-opacity:1;stroke:#1a1a1a;stroke-width:1.01561475;stroke-linecap:square;stroke-linejoin:miter;stroke-miterlimit:4;stroke-opacity:1;stroke-dasharray:none"
         id="path4480"
         sodipodi:cx="9.8994951"
         sodipodi:cy="47.726135"
         sodipodi:rx="4.0658641"
         sodipodi:ry="4.0658641"
         d="m 13.965359,47.726135 a 4.0658641,4.0658641 0 1 1 -8.131728,0 4.0658641,4.0658641 0 1 1 8.131728,0 z"
         transform="matrix(-1,0,0,1,40.44823,979.7105)" />
      <path
         style="fill:#445016;fill-opacity:1;stroke:#1a1a1a;stroke-width:1.01561475;stroke-linecap:square;stroke-linejoin:miter;stroke-miterlimit:4;stroke-opacity:1"
         d="m 22.195932,1009.2678 -1.727968,2.9069 c 2.572092,-0.7461 10.991368,4.8026 7.95228,12.3468 2.458083,-0.2812 5.498565,4.6606 6.301821,-1.0462 0.85333,-6.0626 -3.381299,-13.1218 -12.526133,-14.2075 z"
         id="path4482"
         inkscape:connector-curvature="0"
         sodipodi:nodetypes="cccsc"
         inkscape:transform-center-x="-4.476204"
         inkscape:transform-center-y="6.8258431" />
    </g>
    <path
       sodipodi:nodetypes="ssccsss"
       inkscape:connector-curvature="0"
       id="path4466"
       d="m 35.001346,1045.3004 c -2.283961,0 -4.122673,-0.2534 -4.122673,4.1235 l 0,1.7849 12.706447,0 0,-1.7849 c 0,-2.2843 -1.838712,-4.1235 -4.122673,-4.1235 z"
       style="fill:#563c29;fill-opacity:1;stroke:#1a1a1a;stroke-width:1;stroke-linecap:square;stroke-linejoin:miter;stroke-miterlimit:4;stroke-opacity:1;stroke-dasharray:none" />
    <path
       style="fill:#563c29;fill-opacity:1;stroke:#1a1a1a;stroke-width:1;stroke-linecap:square;stroke-linejoin:miter;stroke-miterlimit:4;stroke-opacity:1;stroke-dasharray:none"
       d="m 14.136638,1045.485 c -1.974271,0 -3.563666,-0.2534 -3.563666,4.1236 l 0,1.7848 10.983539,0 0,-1.7848 c 0,-2.2844 -1.589396,-4.1236 -3.563666,-4.1236 z"
       id="rect4460"
       inkscape:connector-curvature="0"
       sodipodi:nodetypes="ssccsss" />
    <path
       sodipodi:nodetypes="ccccccc"
       inkscape:connector-curvature="0"
       id="path4431"
       d="m 31.278634,1025.5135 5.963259,11.7023 c 2.034624,2.8036 0.767473,4.4628 0.999557,8.0932 -2.196143,-0.1468 -3.890556,3.2619 -7.972072,2.3696 0.350615,-4.5029 0.0436,-7.1584 -0.310349,-9.0626 -4.417861,-1.667 -4.361613,-8.508 -6.710377,-11.3485 z"
       style="fill:#253a4a;fill-opacity:1;stroke:#1a1a1a;stroke-width:1"
       inkscape:transform-center-x="-4.922594"
       inkscape:transform-center-y="7.3855111" />
    <path
       style="fill:#254965;fill-opacity:1;stroke:#1a1a1a;stroke-width:1;stroke-linecap:round;stroke-linejoin:round;stroke-miterlimit:4;stroke-opacity:1;stroke-dasharray:none"
       d="m 25.802248,1021.4822 c -1.785667,0.041 -3.468806,0.6037 -5.44562,1.6617 -2.312808,1.2379 -2.715165,3.6086 -2.584362,5.293 l -2.245933,9.2011 c -2.787333,3.0434 -3.263356,4.1934 -6.4301389,11.109 3.6851869,0.4189 6.9117729,-5.4157 11.1066029,-2.2483 -0.01998,-4.4268 2.157031,-6.8667 4.184205,-8.3684 l 2.984323,-6.7085 c 2.337045,-1.5577 2.987495,-3.4046 4.091906,-5.5391 l 0.307663,-2.8926 c -2.308375,-1.076 -4.182979,-1.5488 -5.968646,-1.5079 z"
       id="path3887"
       inkscape:connector-curvature="0"
       sodipodi:nodetypes="ssccccccccs" />
    <path
       sodipodi:nodetypes="scccccccss"
       inkscape:connector-curvature="0"
       id="path3885"
       d="m 27.172054,1010.1117 c 1.897219,0.3601 3.632487,1.0636 4.029221,2.7571 l 0.03251,5e-4 c 0.0797,0.9329 0.159399,1.0407 0.239099,2.9912 l 2.039256,7.4242 c -2.382827,4.5995 -15.938379,4.1069 -15.476614,-0.3413 l 2.0095,-5.3902 c -0.07969,-1.9505 -0.159388,-1.8144 -0.130872,-3.1457 0.02851,-1.3312 1.538216,-5.3813 3.435435,-5.0212 z"
       style="fill:#563c29;fill-opacity:1;stroke:#1a1a1a;stroke-width:1;stroke-linecap:round;stroke-linejoin:round;stroke-miterlimit:4;stroke-opacity:1;stroke-dasharray:none" />
    <path
       sodipodi:nodetypes="cccc"
       inkscape:connector-curvature="0"
       id="path3912"
       d="m 25.741934,1005.3264 c 2.226406,2.8802 6.083748,5.2943 6.146907,8.7926 l -7.88372,-5.0638 z"
       style="fill:#563c29;fill-opacity:1;stroke:#1a1a1a;stroke-width:1" />
    <path
       style="fill:#bf7646;fill-opacity:1;stroke:#1a1a1a;stroke-width:1"
       d="m 26.209126,990.3881 c -4.44783,0 -8.041057,5.06212 -8.041057,9.51247 0,2.69543 1.337558,5.05913 3.368981,6.52193 0.334242,0.2406 1.027841,0.4483 1.906969,0.6362 -0.02406,0.2672 -0.06356,0.5469 -0.06356,0.8272 0,1.1777 -2.359607,3.1779 -1.971623,3.9329 0.491822,0.9572 3.900773,0.413 4.514249,0.9029 4.383402,3.5003 5.831397,0.8712 3.723132,-1.3868 -0.35478,-0.38 -0.938865,-0.724 -1.082275,-1.1472 -0.24763,-0.7307 -0.350476,-2.4634 -0.350476,-2.4634 0,0 2.853125,0.9725 3.428559,0.9725 3.198545,0 2.420762,-2.3731 3.720561,-5.0762 0.791413,-0.3309 1.203935,-0.8547 1.203935,-1.684 0,-1.1035 -1.238299,-1.3037 -1.824075,-2.25876 0.841017,-4.61 -0.307147,-9.28974 -8.53332,-9.28974 z"
       id="path3877"
       inkscape:connector-curvature="0"
       sodipodi:nodetypes="ssccssssscscscs" />
    <path
       style="fill:#1a1a1a;fill-opacity:1;stroke:none"
       d="m 32.935249,999.47358 c 0,1.40292 0.237095,2.54012 -2.57941,2.54012 -1.424568,0 -2.57941,-1.1372 -2.57941,-2.54012 0,-1.30806 0.246112,-2.54024 2.57941,-2.54024 2.000542,0 2.57941,1.13727 2.57941,2.54024 z"
       id="path3838"
       inkscape:connector-curvature="0"
       sodipodi:nodetypes="sssss" />
    <path
       inkscape:connector-curvature="0"
       style="fill:#f9f9f9;fill-opacity:1;stroke:none"
       d="m 32.743085,999.47358 c 0,1.11562 -0.865679,2.02012 -2.345446,2.02012 -1.479765,0 -2.679355,-0.9045 -2.679355,-2.02012 0,-1.11582 1.19959,-2.02031 2.679355,-2.02031 1.479767,0 2.345446,0.90449 2.345446,2.02031 z"
       id="path3843"
       sodipodi:nodetypes="sssss" />
    <path
       id="path3841"
       d="m 32.845433,999.28447 c 0,1.14183 -0.554764,2.06753 -1.2391,2.06753 -0.684333,0 -1.239097,-0.9257 -1.239097,-2.06753 0,-1.14191 0.554764,-2.06748 1.239097,-2.06748 0.684336,0 1.2391,0.92557 1.2391,2.06748 z"
       style="fill:#1a1a1a;fill-opacity:1;stroke:none"
       inkscape:connector-curvature="0" />
    <path
       style="fill:#1a1a1a;fill-opacity:1;stroke:none"
       d="m 30.165258,996.86979 c -1.744709,0 -3.065538,-0.22307 -3.065538,0.59546 0,0.0948 -0.06006,0.52938 -0.02377,0.61927 0.25868,-0.69643 1.530825,-0.35433 3.089301,-0.35433 1.526619,0 3.345934,0.37095 3.50183,0.72836 0.01352,-0.0402 0.02514,-0.0841 0.02514,-0.12605 0,-0.43318 -1.782277,-1.46271 -3.526982,-1.46271 z"
       id="path3892"
       inkscape:connector-curvature="0"
       sodipodi:nodetypes="sscscss" />
    <path
       style="fill:#1a1a1a;fill-opacity:1;stroke:none"
       d="m 18.454669,993.08698 c -1.237769,2.16486 -1.125939,4.93951 -1.125939,6.8073 0,1.39242 0.975965,7.16052 1.601128,8.29732 0.490932,-2.9169 5.469767,0.1849 6.382233,1.2697 -0.817326,-1.9188 -0.924188,-3.8696 -0.664174,-4.3967 0.170863,-0.3463 -0.592289,-1.812 -1.289635,-2.6502 -0.169722,-0.204 -0.638774,1.4281 -1.2037,0.6616 -0.703357,-0.9542 -0.06825,-1.6755 -0.129322,-1.7685 -3.210278,-4.89309 3.36842,-4.45261 2.139839,-1.2551 -0.0868,0.2259 -0.07482,1.4199 0.143567,2.38 0.533648,-0.061 1.467751,-0.011 1.519988,-0.06 0.09244,-2.1542 -0.239486,-4.85503 0.02072,-5.10463 0.265762,-0.25491 0.601604,-0.75005 1.411885,-0.83974 1.755141,-0.18163 3.161255,-0.0496 4.956522,0.0776 0.770622,-0.0585 1.004186,-2.36058 1.615487,-2.38682 0.550426,-0.0236 1.571289,1.73119 1.878582,1.73119 0.669079,0 -0.136421,-2.91232 -0.20965,-3.3759 -0.313786,-1.98647 -2.872563,-3.96321 -5.693065,-4.76516 -0.440057,-0.12512 -0.886486,-0.22164 -1.331753,-0.28514 -0.403482,-0.0575 -0.80601,-0.0879 -1.20198,-0.0879 -3.633708,-1.7e-4 -7.109282,2.75781 -8.820737,5.75115 z"
       id="path3902"
       inkscape:connector-curvature="0"
       sodipodi:nodetypes="csccsssssccsccsssssssc" />
    <path
       style="fill:#1a1a1a;fill-opacity:1;stroke:#1a1a1a;stroke-width:1;stroke-linecap:round;stroke-linejoin:round;stroke-miterlimit:4;stroke-opacity:1;stroke-dasharray:none"
       d="m 16.160755,992.59675 c 0.420094,2.95485 0.09624,5.59868 0.09624,5.59868 l -0.756447,2.11047 c 5.793984,1.0147 18.794558,-5.69218 23.19769,-7.66558 l -3.209911,-1.13346 -2.038834,-4.04994 c -3.681914,-7.31374 -18.27751,-1.81497 -17.288731,5.13983 z"
       id="rect3880"
       inkscape:connector-curvature="0"
       sodipodi:nodetypes="sccccss" />
    <path
       style="fill:#1a1a1a;fill-opacity:1;stroke:none"
       d="m 33.241719,1004.7069 c -0.961133,0 -1.898298,0.2633 -1.898298,1.0884 0.286142,0.5581 1.245201,-0.1906 1.898295,-0.2354 0.790661,0 1.460889,-0.4827 1.672802,0.1371 0.04569,-0.1336 0.07691,-0.2599 0.07691,-0.4063 0,-0.8251 -0.78858,-0.5838 -1.749707,-0.5838 z"
       id="path3897"
       inkscape:connector-curvature="0"
       sodipodi:nodetypes="scccss" />
    <path
       sodipodi:type="arc"
       style="fill:#bf7646;fill-opacity:1;stroke:#1a1a1a;stroke-width:1.01561475;stroke-linecap:square;stroke-linejoin:miter;stroke-miterlimit:4;stroke-opacity:1;stroke-dasharray:none"
       id="path4473"
       sodipodi:cx="9.8994951"
       sodipodi:cy="47.726135"
       sodipodi:rx="4.0658641"
       sodipodi:ry="4.0658641"
       d="m 13.965359,47.726135 a 4.0658641,4.0658641 0 1 1 -8.131728,0 4.0658641,4.0658641 0 1 1 8.131728,0 z"
       transform="matrix(0.98451884,0,0,0.98473184,4.1437393,980.805)" />
    <path
       style="fill:#563c29;fill-opacity:1;stroke:#1a1a1a;stroke-width:1;stroke-linecap:square;stroke-linejoin:miter;stroke-miterlimit:4;stroke-opacity:1"
       d="m 22.11347,1009.911 1.701217,2.8625 c -2.532273,-0.7347 -10.821209,4.7293 -7.829169,12.1583 -2.420029,-0.2769 -5.413441,4.5894 -6.2042621,-1.0302 -0.8401193,-5.9701 3.3289531,-12.9215 12.3322141,-13.9906 z"
       id="rect4468"
       inkscape:connector-curvature="0"
       sodipodi:nodetypes="cccsc"
       inkscape:transform-center-x="4.406908"
       inkscape:transform-center-y="6.721609" />
    <path
       style="font-size:medium;font-style:normal;font-variant:normal;font-weight:normal;font-stretch:normal;text-indent:0;text-align:start;text-decoration:none;line-height:normal;letter-spacing:normal;word-spacing:normal;text-transform:none;direction:ltr;block-progression:tb;writing-mode:lr-tb;text-anchor:start;baseline-shift:baseline;color:#000000;fill:#deaa87;fill-opacity:1;stroke:#1a1a1a;stroke-width:1;stroke-miterlimit:4;stroke-dasharray:none;marker:none;visibility:visible;display:inline;overflow:visible;enable-background:accumulate;font-family:Sans;-inkscape-font-specification:Sans"
       d="m 23.207084,1010.0357 -0.881418,0.676 0.369194,0.8924 c 0,0 0.662937,1.6138 1.169117,3.4773 0.253089,0.9319 0.478717,1.9196 0.553791,2.7696 0.07507,0.8501 -0.04089,1.5422 -0.184597,1.8156 -1.307562,2.4877 -1.50044,5.5574 -1.538311,6.2161 -0.337472,0.2726 -0.629096,0.5693 -0.707622,1.0463 -0.109888,0.6675 0.301486,1.2156 0.615324,1.5078 0.627677,0.5847 1.366103,0.8916 1.722908,1.1694 l 0.769155,0.6155 1.199882,-1.5694 -0.769155,-0.5847 c -0.539285,-0.4199 -1.017648,-0.6855 -1.322947,-0.8924 l 0.369194,-0.2155 0.03077,-0.523 c 0,0 0.286017,-3.7571 1.384479,-5.8469 0.463252,-0.8813 0.460452,-1.8902 0.369195,-2.9235 -0.09126,-1.0332 -0.312392,-2.106 -0.584558,-3.108 -0.544333,-2.004 -1.230649,-3.6927 -1.230649,-3.6927 z"
       id="path4488"
       inkscape:connector-curvature="0"
       sodipodi:nodetypes="ccccccccccccccccssccc" />
    <path
       style="fill:#563c29;fill-opacity:1;stroke:#1a1a1a;stroke-width:1;stroke-linecap:square;stroke-linejoin:miter"
       d="m 20.535716,1007.5082 9.204343,7.6424 c -3.400614,-1.3816 -9.155203,-3.4639 -10.93489,-2.6452 z"
       id="path3910"
       inkscape:connector-curvature="0"
       sodipodi:nodetypes="cccc" />
    <path
       sodipodi:type="arc"
       style="fill:#1a1a1a;fill-opacity:1;stroke:none"
       id="path4422"
       sodipodi:cx="25.125"
       sodipodi:cy="35"
       sodipodi:rx="1.25"
       sodipodi:ry="1.25"
       d="m 26.375,35 a 1.25,1.25 0 1 1 -2.5,0 1.25,1.25 0 1 1 2.5,0 z"
       transform="matrix(0.98451884,0,0,0.98473184,4.911989,983.04689)" />
    <path
       transform="matrix(0.98451884,0,0,0.98473184,5.8965079,987.72436)"
       d="m 26.375,35 a 1.25,1.25 0 1 1 -2.5,0 1.25,1.25 0 1 1 2.5,0 z"
       sodipodi:ry="1.25"
       sodipodi:rx="1.25"
       sodipodi:cy="35"
       sodipodi:cx="25.125"
       id="path4424"
       style="fill:#1a1a1a;fill-opacity:1;stroke:none"
       sodipodi:type="arc" />
    <path
       style="fill:#1a1a1a;fill-opacity:1;stroke:#1a1a1a;stroke-width:1"
       d="m 30.878673,1049.5471 0,1.6617 12.706447,0 0,-1.6617 -12.706447,0 z"
       id="rect4722"
       inkscape:connector-curvature="0" />
    <path
       style="fill:#1a1a1a;fill-opacity:1;stroke:#1a1a1a;stroke-width:1"
       d="m 10.572972,1049.5471 c -8.9e-5,0.023 0,0.038 0,0.062 l 0,1.7848 10.983539,0 0,-1.7848 c 0,-0.021 2.68e-4,-0.041 0,-0.062 l -10.983539,0 z"
       id="rect4727"
       inkscape:connector-curvature="0" />
    <path
       transform="matrix(0.98451884,0,0,0.98473184,-1.3443949,992.48019)"
       d="m 26.375,35 a 1.25,1.25 0 1 1 -2.5,0 1.25,1.25 0 1 1 2.5,0 z"
       sodipodi:ry="1.25"
       sodipodi:rx="1.25"
       sodipodi:cy="35"
       sodipodi:cx="25.125"
       id="path4737"
       style="fill:#5f6d2a;fill-opacity:1;stroke:#1a1a1a;stroke-width:1.01561475"
       sodipodi:type="arc" />
    <path
       style="fill:#5f6d2a;fill-opacity:1;stroke:#1a1a1a;stroke-width:1;stroke-linecap:square;stroke-linejoin:miter;stroke-miterlimit:4;stroke-opacity:1"
       d="m 39.454917,987.53973 c 0,2.51531 -0.6097,4.55438 -1.969037,4.55438 -1.359337,0 -4.79953,-2.03907 -4.79953,-4.55438 0,-2.51532 3.440193,-4.55439 4.79953,-4.55439 1.359337,0 1.969037,2.03907 1.969037,4.55439 z"
       id="path4798"
       inkscape:connector-curvature="0"
       sodipodi:nodetypes="sssss" />
    <path
       sodipodi:type="arc"
       style="fill:#869c32;fill-opacity:1;stroke:#1a1a1a;stroke-width:1.23825324;stroke-linecap:square;stroke-linejoin:miter;stroke-miterlimit:4;stroke-opacity:1;stroke-dasharray:none"
       id="path4796"
       sodipodi:cx="35.625"
       sodipodi:cy="4.1875"
       sodipodi:rx="2.5"
       sodipodi:ry="5.5"
       d="m 38.125,4.1875 a 2.5,5.5 0 1 1 -5,0 2.5,5.5 0 1 1 5,0 z"
       transform="matrix(0.78761508,0,0,0.82806995,9.427093,984.07218)" />
    <path
       transform="matrix(0.47256905,0,0,0.51516064,20.306026,985.38249)"
       d="m 38.125,4.1875 a 2.5,5.5 0 1 1 -5,0 2.5,5.5 0 1 1 5,0 z"
       sodipodi:ry="5.5"
       sodipodi:rx="2.5"
       sodipodi:cy="4.1875"
       sodipodi:cx="35.625"
       id="path4803"
       style="fill:#a2bf33;fill-opacity:1;stroke:none"
       sodipodi:type="arc" />
  </g>
</svg>
