<?xml version="1.0" encoding="UTF-8" standalone="no"?>
<!-- Created with Inkscape (http://www.inkscape.org/) -->

<svg
   xmlns:dc="http://purl.org/dc/elements/1.1/"
   xmlns:cc="http://creativecommons.org/ns#"
   xmlns:rdf="http://www.w3.org/1999/02/22-rdf-syntax-ns#"
   xmlns:svg="http://www.w3.org/2000/svg"
   xmlns="http://www.w3.org/2000/svg"
   xmlns:sodipodi="http://sodipodi.sourceforge.net/DTD/sodipodi-0.dtd"
   xmlns:inkscape="http://www.inkscape.org/namespaces/inkscape"
   width="20"
   height="20"
   id="svg9466"
   version="1.1"
   inkscape:version="0.48.5 r10040"
   sodipodi:docname="weapons.xcf"
   inkscape:export-filename="/home/vg/Project/litoral/prototype/assets/weapon.png"
   inkscape:export-xdpi="90.055107"
   inkscape:export-ydpi="90.055107">
  <defs
     id="defs9468" />
  <sodipodi:namedview
     id="base"
     pagecolor="#ffffff"
     bordercolor="#666666"
     borderopacity="1.0"
     inkscape:pageopacity="0.0"
     inkscape:pageshadow="2"
     inkscape:zoom="8"
     inkscape:cx="-5.1303284"
     inkscape:cy="2.5878087"
     inkscape:document-units="px"
     inkscape:current-layer="layer6"
     showgrid="false"
     inkscape:window-width="1366"
     inkscape:window-height="715"
     inkscape:window-x="0"
     inkscape:window-y="0"
     inkscape:window-maximized="1" />
  <metadata
     id="metadata9471">
    <rdf:RDF>
      <cc:Work
         rdf:about="">
        <dc:format>image/svg+xml</dc:format>
        <dc:type
           rdf:resource="http://purl.org/dc/dcmitype/StillImage" />
        <dc:title></dc:title>
      </cc:Work>
    </rdf:RDF>
  </metadata>
  <g
     inkscape:label="cantimplora"
     inkscape:groupmode="layer"
     id="layer1"
     transform="translate(0,-1032.3622)"
     style="display:inline"
     sodipodi:insensitive="true">
    <path
       sodipodi:type="arc"
       style="fill:#445016;fill-opacity:1;stroke:#1a1a1a;stroke-width:2;stroke-linecap:square;stroke-linejoin:miter;stroke-miterlimit:4;stroke-opacity:1;stroke-dasharray:none"
       id="path9474"
       sodipodi:cx="9.8489876"
       sodipodi:cy="12.171318"
       sodipodi:rx="6.7553949"
       sodipodi:ry="6.7553949"
       d="m 16.604383,12.171318 a 6.7553949,6.7553949 0 1 1 -13.5107904,0 6.7553949,6.7553949 0 1 1 13.5107904,0 z"
       transform="translate(0,1032.3622)" />
    <rect
       style="fill:#445016;fill-opacity:1;stroke:#1a1a1a;stroke-width:2;stroke-linecap:square;stroke-linejoin:miter;stroke-miterlimit:4;stroke-opacity:1;stroke-dasharray:none"
       id="rect9605"
       width="5.5558391"
       height="5.5558391"
       x="7.1342025"
       y="1033.5481" />
  </g>
  <g
     inkscape:groupmode="layer"
     id="layer2"
     inkscape:label="racion"
     sodipodi:insensitive="true"
     style="display:inline">
    <path
       style="fill:#a02c2c;fill-opacity:1;stroke:#1a1a1a;stroke-width:2;stroke-linecap:square;stroke-linejoin:miter;stroke-miterlimit:4;stroke-opacity:1;stroke-dasharray:none"
       d="m 6.1508121,2.0625 c -2.4412894,0 -4.4280131,1.9857159 -4.4280131,4.4257667 0,1.8857504 1.2012733,3.4734943 2.865185,4.1075743 L 10,17.625 15.412016,10.595841 C 17.075927,9.961761 18.277201,8.3740171 18.277201,6.4882667 18.277201,4.0482159 16.290477,2.0625 13.849188,2.0625 12.193899,2.0625 10.757454,2.9725897 10,4.3187732 9.2425453,2.9725897 7.8061015,2.0625 6.1508121,2.0625 z"
       id="path9608"
       inkscape:connector-curvature="0"
       sodipodi:nodetypes="sscccsscs" />
    <path
       style="fill:#a02c2c;fill-opacity:1;stroke:#ffffff;stroke-width:2;stroke-linecap:square;stroke-linejoin:miter;stroke-miterlimit:4;stroke-opacity:1;stroke-dasharray:none"
       d="m 13.102252,5.095207 c 1.209614,-0.043468 1.974229,0.5361914 2.0625,2.0629325"
       id="path9615"
       inkscape:connector-curvature="0"
       sodipodi:nodetypes="cc" />
  </g>
  <g
     inkscape:groupmode="layer"
     id="layer3"
     inkscape:label="picota"
     sodipodi:insensitive="true"
     style="display:inline">
    <path
       style="font-size:medium;font-style:normal;font-variant:normal;font-weight:normal;font-stretch:normal;text-indent:0;text-align:start;text-decoration:none;line-height:normal;letter-spacing:normal;word-spacing:normal;text-transform:none;direction:ltr;block-progression:tb;writing-mode:lr-tb;text-anchor:start;baseline-shift:baseline;color:#000000;fill:#502d16;fill-opacity:1;fill-rule:nonzero;stroke:#ffff00;stroke-width:0.5;stroke-miterlimit:4;stroke-dasharray:none;marker:none;visibility:visible;display:inline;overflow:visible;enable-background:accumulate;font-family:Sans;-inkscape-font-specification:Sans"
       d="m 7.4374998,2.46875 0,1.5 0,14.40625 0,1.5 5.1250002,0 0,-1.5 0,-14.40625 0,-1.5 -5.1250002,0 z"
       id="path9618"
       inkscape:connector-curvature="0" />
    <path
       style="font-size:medium;font-style:normal;font-variant:normal;font-weight:normal;font-stretch:normal;text-indent:0;text-align:start;text-decoration:none;line-height:normal;letter-spacing:normal;word-spacing:normal;text-transform:none;direction:ltr;block-progression:tb;writing-mode:lr-tb;text-anchor:start;baseline-shift:baseline;color:#000000;fill:#4d4d4d;fill-opacity:1;stroke:#ffff00;stroke-width:0.5;stroke-miterlimit:4;stroke-dasharray:none;marker:none;visibility:visible;display:inline;overflow:visible;enable-background:accumulate;font-family:Sans;-inkscape-font-specification:Sans"
       d="m 9.890625,0.44520622 c -7.343514,0 -9.40352269,6.88509258 -9.4004284,8.37583738 l 0,0.7086329 0.8144405,0 0,-0.7086329 c -0.00283,-1.3645499 4.9067312,-5.242636 8.5859879,-5.242636 3.679257,0 8.876053,3.4950714 8.819702,5.2950694 l -0.02205,0.6522951 0.749691,0.076741 0.02205,-0.6522951 C 19.523929,6.9087197 17.234139,0.44520622 9.890625,0.44520622 z"
       id="path9620"
       inkscape:connector-curvature="0"
       sodipodi:nodetypes="zcccczccccz" />
  </g>
  <g
     inkscape:label="lanza"
     id="g10153"
     inkscape:groupmode="layer"
     style="display:inline"
     sodipodi:insensitive="true">
    <path
       style="font-size:medium;font-style:normal;font-variant:normal;font-weight:normal;font-stretch:normal;text-indent:0;text-align:start;text-decoration:none;line-height:normal;letter-spacing:normal;word-spacing:normal;text-transform:none;direction:ltr;block-progression:tb;writing-mode:lr-tb;text-anchor:start;baseline-shift:baseline;color:#000000;fill:#000000;fill-opacity:1;fill-rule:nonzero;stroke:#ffff00;stroke-width:0.5;stroke-miterlimit:4;stroke-dasharray:none;marker:none;visibility:visible;display:inline;overflow:visible;enable-background:accumulate;font-family:Sans;-inkscape-font-specification:Sans"
       d="M 19.8125,0.1875 11.40625,2.4375 13.8125,4.875 1.53125,17.15625 0.84375,17.875 2.25,19.28125 2.96875,18.59375 15.25,6.3125 l 2.3125,2.28125 2.25,-8.40625 z"
       id="path10159"
       inkscape:connector-curvature="0" />
  </g>
  <g
     inkscape:groupmode="layer"
     id="layer4"
     inkscape:label="oz"
     sodipodi:insensitive="true"
     style="display:inline">
    <path
       style="font-size:medium;font-style:normal;font-variant:normal;font-weight:normal;font-stretch:normal;text-indent:0;text-align:start;text-decoration:none;line-height:normal;letter-spacing:normal;word-spacing:normal;text-transform:none;direction:ltr;block-progression:tb;writing-mode:lr-tb;text-anchor:start;baseline-shift:baseline;color:#000000;fill:#000000;fill-opacity:1;fill-rule:nonzero;stroke:#ffff00;stroke-width:0.5;stroke-miterlimit:4;stroke-dasharray:none;marker:none;visibility:visible;display:inline;overflow:visible;enable-background:accumulate;font-family:Sans;-inkscape-font-specification:Sans"
       d="m 4.9375,1.46875 0,5.8125 c 0.431118,-0.1796265 0.837283,-0.3543623 1.25,-0.5 l 0,11.4375 0,1 2,0 0,-1 0,-11.84375 0,-0.15625 C 12.96298,5.085594 16.408629,6.4139764 19,9.3125 18.059857,4.5429806 14.44279,1.3068211 4.9375,1.46875 z"
       id="path10167"
       inkscape:connector-curvature="0" />
  </g>
  <g
     inkscape:groupmode="layer"
     id="layer5"
     inkscape:label="fusil"
     sodipodi:insensitive="true">
    <path
       style="font-size:medium;font-style:normal;font-variant:normal;font-weight:normal;font-stretch:normal;text-indent:0;text-align:start;text-decoration:none;line-height:normal;letter-spacing:normal;word-spacing:normal;text-transform:none;direction:ltr;block-progression:tb;writing-mode:lr-tb;text-anchor:start;baseline-shift:baseline;color:#000000;fill:#000000;fill-opacity:1;stroke:#ffff00;stroke-width:0.5;stroke-miterlimit:4;stroke-dasharray:none;marker:none;visibility:visible;display:inline;overflow:visible;enable-background:accumulate;font-family:Sans;-inkscape-font-specification:Sans"
       d="m 13.655572,4.0433081 0.04073,0.040728 0.325824,0.3258237 0.285095,0.2850958 0.264732,0.2647318 -7.3310328,7.3310336 -0.040728,-0.04073 -5.7833707,4.8059 2.3622218,2.362222 4.5818959,-5.559367 2.7695018,4.032068 3.421148,-3.421149 -1.99567,-1.38475 c 0.01427,-0.01351 0.02675,-0.02675 0.04072,-0.04072 0.842042,-0.842041 0.842042,-2.212555 0,-3.0545966 -0.07731,-0.07731 -0.158829,-0.1405245 -0.244367,-0.2036399 L 17.382181,4.7560475 18.033828,4.1044001 16.730534,2.8011053 16.078887,3.4527527 15.223599,4.30804 14.958867,4.0433081 17.667277,1.3348986 17.993101,1.0090749 17.341453,0.35742751 17.01563,0.68325122 13.981396,3.7174845 13.655572,4.0433081 z m -3.17678,7.6161289 1.221838,-1.221838 c 0.08931,0.05285 0.167198,0.126468 0.244368,0.20364 0.489865,0.489865 0.489865,1.261436 0,1.751302 -0.05443,0.05443 -0.102113,0.120577 -0.162911,0.162912 l -1.303295,-0.896016 z"
       id="path10181"
       inkscape:connector-curvature="0" />
  </g>
  <g
     inkscape:groupmode="layer"
     id="layer6"
     inkscape:label="bullet">
    <g
       id="g10237"
       transform="translate(-23.500005,0.46875)"
       style="stroke:#ffff00;stroke-width:0.5;stroke-miterlimit:4;stroke-dasharray:none">
      <path
         sodipodi:nodetypes="ssccss"
         inkscape:connector-curvature="0"
         id="rect10226"
         d="m 33.5,0.875 c -3.80875,0 -6.881567,3.0662557 -6.875,6.875 l 0.01563,6.4375 13.71875,0 L 40.375,7.75 C 40.384245,3.9412612 37.30875,0.875 33.5,0.875 z"
         style="fill:#000000;stroke:#ffff00;stroke-width:0.5;stroke-miterlimit:4;stroke-dasharray:none" />
      <path
         id="path10232"
         d="m 26.65625,15.5 0,2.6875 13.71875,0 0,-2.6875 -13.71875,0 z"
         style="fill:#000000;stroke:#ffff00;stroke-width:0.5;stroke-miterlimit:4;stroke-dasharray:none"
         inkscape:connector-curvature="0" />
    </g>
  </g>
</svg>
